<svg width="24" height="24" viewBox="0 0 24 24" fill="none" xmlns="http://www.w3.org/2000/svg">
<circle cx="12" cy="12" r="12" fill="#2948FF"/>
<path d="M9.468 16V15.388L12.96 11.968C13.28 11.656 13.52 11.384 13.68 11.152C13.84 10.912 13.948 10.688 14.004 10.48C14.06 10.272 14.088 10.076 14.088 9.892C14.088 9.404 13.92 9.02 13.584 8.74C13.256 8.46 12.768 8.32 12.12 8.32C11.624 8.32 11.184 8.396 10.8 8.548C10.424 8.7 10.1 8.936 9.828 9.256L9.216 8.728C9.544 8.344 9.964 8.048 10.476 7.84C10.988 7.632 11.56 7.528 12.192 7.528C12.76 7.528 13.252 7.62 13.668 7.804C14.084 7.98 14.404 8.24 14.628 8.584C14.86 8.928 14.976 9.332 14.976 9.796C14.976 10.068 14.936 10.336 14.856 10.6C14.784 10.864 14.648 11.144 14.448 11.44C14.256 11.728 13.972 12.056 13.596 12.424L10.392 15.568L10.152 15.232H15.36V16H9.468Z" fill="white"/>
</svg>
