<svg width="24" height="24" viewBox="0 0 24 24" fill="none" xmlns="http://www.w3.org/2000/svg">
<path d="M4.92265 4.93523L6.4874 6.5M22 12C22 17.5229 17.5229 22 12 22C6.47715 22 2 17.5229 2 12H22ZM22 12H20H22ZM22 12C22 9.2418 20.8833 6.74435 19.0774 4.93523L22 12ZM2 12H4H2ZM2 12C2 9.24175 3.1167 6.74435 4.92265 4.93523L2 12ZM12 2V4V2ZM12 2C14.7646 2 17.2672 3.12189 19.0774 4.93523L12 2ZM12 2C9.2354 2 6.7328 3.12189 4.92265 4.93523L12 2ZM19.0774 4.93523L17.5126 6.5L19.0774 4.93523Z" stroke="#595959" stroke-width="2" stroke-linecap="round" stroke-linejoin="round"/>
<path d="M12 10V16" stroke="#595959" stroke-width="2" stroke-linecap="round" stroke-linejoin="round"/>
<path d="M19.9261 18.098C18.0977 20.4711 15.2274 22 12 22C8.7726 22 5.9023 20.4711 4.07385 18.098C6.41045 16.7629 9.11615 16 12 16C14.8838 16 17.5895 16.7629 19.9261 18.098Z" stroke="#595959" stroke-width="2" stroke-linecap="round" stroke-linejoin="round"/>
</svg>
