<svg width="24" height="24" viewBox="0 0 24 24" fill="none" xmlns="http://www.w3.org/2000/svg">
<circle cx="12" cy="12" r="12" fill="#4F5665"/>
<path d="M12.132 16.072C11.524 16.072 10.948 15.976 10.404 15.784C9.868 15.584 9.436 15.32 9.108 14.992L9.528 14.308C9.8 14.588 10.164 14.82 10.62 15.004C11.084 15.188 11.588 15.28 12.132 15.28C12.828 15.28 13.36 15.128 13.728 14.824C14.104 14.52 14.292 14.112 14.292 13.6C14.292 13.088 14.108 12.68 13.74 12.376C13.38 12.072 12.808 11.92 12.024 11.92H11.424V11.284L14.016 8.032L14.136 8.368H9.456V7.6H14.856V8.212L12.264 11.464L11.844 11.188H12.168C13.176 11.188 13.928 11.412 14.424 11.86C14.928 12.308 15.18 12.884 15.18 13.588C15.18 14.06 15.068 14.484 14.844 14.86C14.62 15.236 14.28 15.532 13.824 15.748C13.376 15.964 12.812 16.072 12.132 16.072Z" fill="white"/>
</svg>
