<svg width="678" height="77" viewBox="0 0 678 77" fill="none" xmlns="http://www.w3.org/2000/svg">
<path d="M85.3238 53.4093V51.37H83.1012V48.1996L83.0263 48.2259L80.9387 48.9536L80.8976 48.9679V51.37H77.6026V50.032C77.6026 49.4088 77.7249 48.932 77.9659 48.614C78.2052 48.2998 78.5476 48.14 78.9841 48.14C79.298 48.14 79.623 48.2243 79.95 48.3905L80.032 48.4321V46.2845L79.9935 46.2683C79.6884 46.1434 79.2733 46.0804 78.759 46.0804C78.1107 46.0804 77.5216 46.2411 77.008 46.5597C76.4939 46.8787 76.0896 47.3341 75.8064 47.9132C75.5241 48.4916 75.3808 49.1595 75.3808 49.8988V51.37H73.8332V53.4093H75.3808V62.0003H77.6026V53.4093H80.8976V58.8688C80.8976 61.1173 81.8284 62.2568 83.6642 62.2568C83.9659 62.2568 84.2833 62.2164 84.6076 62.1375C84.9375 62.0566 85.1622 61.9757 85.2945 61.8893L85.3238 61.8697V59.8115L85.2335 59.8796C85.1129 59.9713 84.9627 60.046 84.7866 60.1016C84.6098 60.1582 84.4621 60.1867 84.3478 60.1867C83.9177 60.1867 83.5996 60.0546 83.402 59.7941C83.2024 59.5312 83.1012 59.0713 83.1012 58.4281V53.4093H85.3238ZM68.8717 60.1869C68.0652 60.1869 67.4295 59.8822 66.9814 59.2821C66.5306 58.6789 66.3022 57.8189 66.3022 56.7264C66.3022 55.5992 66.5306 54.717 66.9817 54.1031C67.43 53.4933 68.0597 53.1839 68.8536 53.1839C69.6239 53.1839 70.2372 53.4795 70.6764 54.0629C71.1179 54.6493 71.3419 55.5245 71.3419 56.6648C71.3419 57.8192 71.1312 58.7059 70.7157 59.299C70.3032 59.8878 69.6829 60.1869 68.8717 60.1869ZM68.9706 51.1139C67.4321 51.1139 66.2101 51.6275 65.3389 52.6406C64.4682 53.6537 64.0267 55.0557 64.0267 56.8081C64.0267 58.4725 64.4577 59.8112 65.3076 60.7866C66.1576 61.7623 67.3144 62.2566 68.7455 62.2566C70.2369 62.2566 71.4346 61.7358 72.3055 60.7087C73.1763 59.6827 73.6174 58.294 73.6174 56.5825C73.6174 54.8921 73.2034 53.5434 72.3866 52.5745C71.5693 51.6052 70.4198 51.1139 68.9706 51.1139ZM60.4445 51.1138C59.398 51.1138 58.5324 51.4188 57.871 52.0202C57.2058 52.6251 56.8683 53.4185 56.8683 54.3786C56.8683 54.8776 56.9412 55.321 57.0846 55.6969C57.2288 56.0742 57.452 56.4062 57.7485 56.685C58.0428 56.9615 58.4969 57.2512 59.099 57.5457C59.6049 57.783 59.9823 57.9838 60.222 58.1419C60.4563 58.2969 60.6227 58.4528 60.7166 58.6045C60.8078 58.753 60.8542 58.9562 60.8542 59.2071C60.8542 59.9212 60.3848 60.2687 59.4189 60.2687C59.0607 60.2687 58.652 60.1836 58.2043 60.0155C57.7564 59.8476 57.3378 59.6063 56.9605 59.2969L56.8683 59.2216V61.6586L56.9022 61.6766C57.2166 61.8419 57.6129 61.9813 58.08 62.0911C58.5463 62.2008 58.9699 62.2568 59.3379 62.2568C60.4736 62.2568 61.388 61.9503 62.0553 61.3454C62.7268 60.7363 63.0672 59.9242 63.0672 58.9308C63.0672 58.2143 62.884 57.5997 62.5228 57.1042C62.1642 56.6126 61.5418 56.1614 60.6734 55.7625C59.9817 55.4462 59.5385 55.1836 59.3558 54.9821C59.1796 54.7873 59.0901 54.5119 59.0901 54.1632C59.0901 53.854 59.2005 53.6064 59.4273 53.4058C59.6558 53.2042 59.9738 53.1017 60.3728 53.1017C60.743 53.1017 61.1217 53.1683 61.4983 53.2988C61.8748 53.4293 62.2053 53.6042 62.4813 53.8182L62.572 53.8888V51.577L62.5372 51.5599C62.2826 51.4355 61.9469 51.3291 61.5392 51.2427C61.1331 51.1572 60.7647 51.1138 60.4445 51.1138ZM51.0763 60.1869C50.2701 60.1869 49.6341 59.8822 49.1862 59.2821C48.7353 58.6789 48.5072 57.8192 48.5072 56.7264C48.5072 55.5992 48.7355 54.717 49.1867 54.1031C49.6346 53.4933 50.2642 53.1839 51.0584 53.1839C51.8286 53.1839 52.4418 53.4795 52.8811 54.0629C53.3227 54.6493 53.5466 55.5245 53.5466 56.6648C53.5466 57.8192 53.3358 58.7059 52.9204 59.299C52.5079 59.8878 51.8878 60.1869 51.0763 60.1869ZM51.1755 51.1139C49.6366 51.1139 48.4146 51.6275 47.5438 52.6406C46.6731 53.6537 46.2313 55.0557 46.2313 56.8081C46.2313 58.4732 46.6625 59.8112 47.5125 60.7866C48.3625 61.7623 49.5192 62.2566 50.9504 62.2566C52.4414 62.2566 53.6394 61.7358 54.5103 60.7087C55.3809 59.6827 55.8223 58.294 55.8223 56.5825C55.8223 54.8921 55.4082 53.5434 54.5912 52.5745C53.7737 51.6052 52.6244 51.1139 51.1755 51.1139ZM42.8587 53.2109V51.37H40.6641V62.0001H42.8587V56.5624C42.8587 55.6377 43.0427 54.8782 43.4058 54.3044C43.7642 53.7375 44.242 53.4502 44.8252 53.4502C45.0228 53.4502 45.2447 53.4874 45.485 53.5609C45.7229 53.6339 45.8952 53.7131 45.9968 53.7966L46.089 53.8727V51.3518L46.0534 51.3344C45.849 51.2354 45.56 51.1855 45.1941 51.1855C44.6427 51.1855 44.1491 51.3874 43.7263 51.7849C43.3553 52.1343 43.087 52.6134 42.882 53.2109H42.8587ZM36.7339 51.1138C35.7271 51.1138 34.829 51.3599 34.065 51.8448C33.2996 52.3308 32.7076 53.0247 32.3049 53.907C31.9039 54.7873 31.7004 55.8155 31.7004 56.962C31.7004 57.9664 31.8978 58.8882 32.2879 59.7004C32.6782 60.5141 33.2308 61.1506 33.9301 61.5922C34.6285 62.0332 35.4357 62.2568 36.3294 62.2568C37.3723 62.2568 38.2628 62.0191 38.9768 61.5507L39.0056 61.5317V59.2409L38.9134 59.3176C38.59 59.586 38.2286 59.8002 37.8397 59.9546C37.4518 60.1089 37.0981 60.1868 36.7881 60.1868C35.927 60.1868 35.2357 59.8797 34.7339 59.2746C34.2309 58.6684 33.9759 57.8175 33.9759 56.7465C33.9759 55.6688 34.2419 54.796 34.766 54.1519C35.2884 53.5097 35.981 53.184 36.8243 53.184C37.5457 53.184 38.2486 53.4623 38.9137 54.0119L39.0056 54.0881V51.6743L38.9759 51.6552C38.7256 51.4956 38.3844 51.3638 37.9606 51.2639C37.5387 51.1642 37.1261 51.1138 36.7339 51.1138ZM30.1888 51.37H27.9942V62.0001H30.1888V51.37ZM29.1139 46.8416C28.7527 46.8416 28.4377 46.9816 28.1789 47.2593C27.919 47.5377 27.787 47.8883 27.787 48.3019C27.787 48.7091 27.9174 49.0531 28.1747 49.3242C28.4304 49.5944 28.7464 49.7314 29.1139 49.7314C29.4812 49.7314 29.7985 49.5944 30.0573 49.3246C30.3178 49.0531 30.4499 48.7091 30.4499 48.3019C30.4499 47.9027 30.3214 47.5557 30.068 47.2705C29.815 46.9858 29.4939 46.8416 29.1139 46.8416ZM23.6381 50.5858V62H25.8779V47.1671H22.778L18.8378 58.1845L15.0142 47.1671H11.7881V62H13.8928V50.5847H13.9652L18.0029 62H19.5912L23.5659 50.5858H23.6381Z" fill="#4F5665"/>
<path d="M46.5674 25.6758H36.2432V13.9127H46.5674V25.6758Z" fill="#4F5665"/>
<path d="M57.9671 25.6758H47.6431V13.9127H57.9671V25.6758Z" fill="#4F5665"/>
<path d="M46.5671 38.6685H36.2432V26.9054H46.5671V38.6685Z" fill="#4F5665"/>
<path d="M57.9671 38.6685H47.6431V26.9054H57.9671V38.6685Z" fill="#4F5665"/>
<path d="M165.21 17.6286L158.717 22.4362L165.21 27.2439L158.717 32.0516L152.225 27.2038L158.717 22.3962L152.225 17.6286L158.717 12.8209L165.21 17.6286ZM158.683 33.574L165.175 28.7663L171.668 33.574L165.175 38.3816L158.683 33.574ZM165.21 27.2038L171.703 22.3962L165.21 17.6286L171.668 12.8209L178.161 17.6286L171.668 22.4362L178.161 27.2439L171.668 32.0516L165.21 27.2038Z" fill="#4F5665"/>
<path d="M128.376 45.8774H133.122C136.151 45.8774 138.649 47.8812 138.649 52.4613V53.4274C138.649 58.0432 136.307 60.1185 133.216 60.1185H128.376V45.8774ZM131.03 48.4537V57.5065H133.06C134.777 57.5065 135.932 56.2183 135.932 53.3558V52.6044C135.932 49.7419 134.714 48.4537 132.966 48.4537H131.03ZM140.054 48.5968H142.177L142.521 51.2805C142.926 49.4556 143.957 48.4895 145.83 48.4895H146.486V51.5667H145.393C143.239 51.5667 142.708 52.4255 142.708 54.8586V60.1543H140.085V48.5968H140.054ZM147.017 54.6082V54.2861C147.017 50.4217 149.171 48.3106 152.106 48.3106C155.104 48.3106 157.196 50.4217 157.196 54.2861V54.6082C157.196 58.401 155.166 60.4406 152.106 60.4406C148.859 60.4048 147.017 58.401 147.017 54.6082ZM154.511 54.5724V54.2861C154.511 52.1392 153.574 50.8511 152.075 50.8511C150.608 50.8511 149.64 52.0319 149.64 54.2861V54.5724C149.64 56.6477 150.576 57.8285 152.075 57.8285C153.574 57.7927 154.511 56.6477 154.511 54.5724ZM158.57 48.5968H160.755L161.005 50.7795C161.536 49.3125 162.66 48.3106 164.315 48.3106C166.875 48.3106 168.561 50.4217 168.561 54.3219V54.6439C168.561 58.4368 166.688 60.4406 164.315 60.4406C162.723 60.4406 161.63 59.6176 161.099 58.2937V64.1261H158.539L158.57 48.5968ZM165.907 54.5724V54.3219C165.907 52.0319 164.877 50.8869 163.503 50.8869C162.036 50.8869 161.068 52.175 161.068 54.3219V54.5366C161.068 56.5761 162.004 57.8643 163.472 57.8643C164.971 57.8285 165.907 56.7193 165.907 54.5724ZM172.433 58.0074L172.215 60.1185H169.967V44.7324H172.527V50.6364C173.089 49.1336 174.213 48.3106 175.805 48.3106C178.21 48.3464 179.99 50.2428 179.99 54.0714V54.4292C179.99 58.2579 178.303 60.4406 175.743 60.4406C174.057 60.4048 172.964 59.5102 172.433 58.0074ZM177.304 54.4292V54.143C177.304 52.0319 176.305 50.8511 174.9 50.8511C173.464 50.8511 172.464 52.175 172.464 54.1788V54.4292C172.464 56.5761 173.432 57.8285 174.869 57.8285C176.399 57.8285 177.304 56.7193 177.304 54.4292ZM181.114 54.6082V54.2861C181.114 50.4217 183.268 48.3106 186.203 48.3106C189.201 48.3106 191.293 50.4217 191.293 54.2861V54.6082C191.293 58.401 189.232 60.4406 186.203 60.4406C182.956 60.4048 181.114 58.401 181.114 54.6082ZM188.639 54.5724V54.2861C188.639 52.1392 187.702 50.8511 186.203 50.8511C184.736 50.8511 183.768 52.0319 183.768 54.2861V54.5724C183.768 56.6477 184.704 57.8285 186.203 57.8285C187.702 57.7927 188.639 56.6477 188.639 54.5724ZM194.727 54.143L191.199 48.5968H194.228L196.257 52.0677L198.318 48.5968H201.316L197.725 54.1072L201.503 60.1185H198.537L196.226 56.2899L193.978 60.1185H190.887L194.727 54.143Z" fill="#4F5665"/>
<path d="M291.999 17.9345C294.092 16.7632 295.13 16.9169 295.153 18.1042C295.181 19.6465 294.981 21.6975 294.837 23.1815C294.06 31.2475 292.762 37.8385 292.664 46.1202C296.083 36.0355 298.949 29.0263 302.642 20.3938C303.814 17.6431 304.563 18.1572 305.526 17.6696C309.275 15.7669 309.415 16.9329 308.926 19.2596C307.108 27.8773 302.451 55.0108 301.74 59.1889C301.535 60.3977 300.381 59.8853 300.084 59.4125C298.749 57.3085 297.242 57.2756 297.409 55.8764C298.246 48.9106 301.26 31.4336 302.047 27.3155C298.041 36.6709 293.888 48.3663 291.752 54.9977C291.301 56.4058 290.478 56.3025 289.966 55.2722C289.245 53.8249 287.845 53.0859 287.612 51.3756C286.882 45.938 288.45 35.5733 288.668 29.0162C286.487 36.1791 282.826 50.0856 281.221 56.3687C280.561 58.9683 278.356 58.5443 278.942 56.0105C281.379 45.4662 286.631 26.8173 288.901 20.1128C289.436 18.5334 290.836 18.5864 291.999 17.9345Z" fill="#4F5665"/>
<path d="M278.704 16.6415C277.997 16.4454 275.945 17.7068 274.685 17.9558C274.285 18.0353 273.903 18.5176 273.768 18.8622C271.749 24.1462 269.94 29.1833 268.372 33.7719C266.368 34.162 264.023 34.6756 261.4 35.3471C263.279 29.8547 265.177 24.4376 267.028 19.2278C267.94 16.6626 265.54 16.4188 264.609 19.0158C263.4 22.3919 261.134 28.7174 258.627 36.0901C256.785 36.6047 254.832 37.193 252.789 37.8651C251.305 38.3532 251.245 38.8037 251.887 39.8176C252.241 40.3822 252.971 40.3253 253.306 40.7276C254.171 41.7701 254.697 43.0171 256.246 43.2059C254.864 47.4166 253.482 51.7589 252.231 55.94C251.445 58.5645 253.682 59.1014 254.543 56.3242C255.929 51.8473 257.39 47.3164 258.892 42.7987C260.144 42.4674 263.172 41.7243 265.967 41.0332C263.749 47.9623 262.288 53.2247 261.734 55.7862C261.632 56.279 261.804 56.5526 261.897 56.7534C262.646 57.9952 263.358 58.0461 264.321 59.5814C264.581 60.0001 265.456 60.2259 265.753 59.1951C267.809 52.1191 269.926 45.4799 271.898 39.528C272.717 39.3239 274.191 38.9185 275.094 37.3841C276.699 34.661 277.159 35.2133 277.545 34.3854C278.029 33.3461 277.708 32.3704 275.996 32.6115C275.996 32.6115 275.35 32.6639 274.154 32.8192C276.052 27.2516 277.713 22.5293 278.908 18.9307C279.318 17.7121 279.369 16.8217 278.704 16.6415Z" fill="#4F5665"/>
<path d="M275.904 52.7524C276.346 54.0249 277.727 53.6395 277.202 52.1037C276.667 50.5391 275.336 45.829 274.987 44.3116C274.513 42.2669 276.569 42.8261 275.527 44.1628C274.634 45.3123 274.038 45.7728 272.387 47.9585C270.792 50.0685 271.224 52.8065 272.931 53.4112C274.857 54.0938 276.555 51.676 277.606 49.9022C278.625 48.1844 277.639 47.1769 276.611 48.1924C275.95 48.8453 275.187 49.848 274.415 50.3887C273.787 50.8238 273.294 50.3563 274.132 49.0431C275.104 47.5225 276.192 46.2484 277.002 44.8116C278.653 41.8833 275.387 40.1954 273.983 42.0975C273.229 43.1114 273.42 44.1067 273.624 44.961C273.955 46.3294 275.183 50.6977 275.904 52.7524Z" fill="#4F5665"/>
<path d="M398.883 31.0376C398.883 32.0978 398.109 32.9653 397.163 32.9653C396.218 32.9653 395.444 32.0978 395.444 31.0376C395.444 29.9774 396.175 29.11 397.163 29.11C398.152 29.1341 398.883 30.0015 398.883 31.0376ZM391.833 34.8929C391.833 35.0616 391.833 35.3748 391.833 35.3748C391.833 35.3748 391.016 34.1941 389.275 34.1941C386.416 34.1941 384.16 36.6519 384.16 40.0252C384.16 43.3986 386.373 45.8564 389.275 45.8564C391.038 45.8564 391.833 44.6516 391.833 44.6516V45.1576C391.833 45.3985 391.983 45.5672 392.198 45.5672H394.326V34.4833C394.326 34.4833 392.37 34.4833 392.198 34.4833C391.983 34.4833 391.833 34.7002 391.833 34.8929ZM391.833 42.0011C391.446 42.6517 390.651 43.2059 389.705 43.2059C388.028 43.2059 386.739 42.0252 386.739 40.0252C386.739 38.0253 388.028 36.8446 389.705 36.8446C390.629 36.8446 391.467 37.4229 391.833 38.0494V42.0011ZM395.917 34.4833H398.453V45.5672H395.917V34.4833ZM433.638 34.1941C431.897 34.1941 431.08 35.3748 431.08 35.3748V29.1582H428.544V45.5913C428.544 45.5913 430.5 45.5913 430.672 45.5913C430.887 45.5913 431.038 45.3744 431.038 45.1817V44.6757C431.038 44.6757 431.854 45.8804 433.595 45.8804C436.454 45.8804 438.711 43.3986 438.711 40.0493C438.732 36.676 436.475 34.1941 433.638 34.1941ZM433.23 43.1818C432.263 43.1818 431.489 42.6276 431.102 41.977V38.0253C431.489 37.447 432.349 36.8206 433.23 36.8206C434.906 36.8206 436.196 38.0012 436.196 40.0012C436.196 42.0011 434.906 43.1818 433.23 43.1818ZM427.255 38.9891V45.5913H424.718V39.3265C424.718 37.4952 424.202 36.7483 422.762 36.7483C421.989 36.7483 421.215 37.182 420.72 37.8326V45.5672H418.184V34.4833H420.183C420.398 34.4833 420.549 34.7002 420.549 34.8929V35.3748C421.279 34.5074 422.268 34.1941 423.235 34.1941C424.331 34.1941 425.256 34.5556 426.008 35.2543C426.911 36.0736 427.255 37.1338 427.255 38.9891ZM412.058 34.1941C410.317 34.1941 409.501 35.3748 409.501 35.3748V29.1582H406.964V45.5913C406.964 45.5913 408.92 45.5913 409.092 45.5913C409.307 45.5913 409.458 45.3744 409.458 45.1817V44.6757C409.458 44.6757 410.274 45.8804 412.015 45.8804C414.874 45.8804 417.131 43.3986 417.131 40.0493C417.174 36.676 414.939 34.1941 412.058 34.1941ZM411.65 43.1818C410.683 43.1818 409.909 42.6276 409.522 41.977V38.0253C409.909 37.447 410.769 36.8206 411.65 36.8206C413.327 36.8206 414.616 38.0012 414.616 40.0012C414.616 42.0011 413.327 43.1818 411.65 43.1818ZM404.794 34.1941C405.567 34.1941 405.954 34.3387 405.954 34.3387V36.9651C405.954 36.9651 403.848 36.17 402.537 37.8567V45.6154H400V34.4833C400 34.4833 401.956 34.4833 402.128 34.4833C402.343 34.4833 402.494 34.7002 402.494 34.8929V35.3748C402.988 34.7483 404.02 34.1941 404.794 34.1941ZM378.571 44.5793C378.442 44.2179 378.313 43.8323 378.184 43.5191C377.969 42.989 377.754 42.483 377.582 42.0252L377.561 42.0011C375.755 37.5675 373.799 33.0858 371.736 28.6763L371.65 28.5076C371.435 28.0739 371.22 27.592 371.027 27.1101C370.769 26.58 370.511 26.0258 370.081 25.4957C369.243 24.315 368.039 23.6644 366.75 23.6644C365.438 23.6644 364.256 24.315 363.375 25.4234C362.988 25.9535 362.687 26.5077 362.429 27.0378C362.214 27.5197 361.999 27.9775 361.806 28.4353L361.72 28.604C359.7 33.0376 357.722 37.5193 355.895 41.9288L355.874 41.977C355.68 42.4589 355.487 42.9408 355.272 43.4709C355.143 43.7841 355.014 44.1456 354.885 44.5311C354.541 45.6154 354.434 46.6515 354.563 47.7117C354.842 49.9285 356.175 51.7838 357.98 52.6031C358.668 52.9163 359.377 53.085 360.108 53.085C360.323 53.085 360.581 53.0609 360.796 53.0368C361.655 52.9163 362.558 52.6031 363.418 52.0248C364.493 51.3501 365.524 50.3622 366.685 48.9647C367.846 50.3863 368.899 51.3501 369.952 52.0248C370.812 52.579 371.715 52.9163 372.574 53.0368C372.789 53.0609 373.047 53.085 373.262 53.085C373.993 53.085 374.745 52.9404 375.39 52.6031C377.238 51.7838 378.528 49.8803 378.808 47.7117C379.022 46.6997 378.915 45.6636 378.571 44.5793ZM366.707 46.0973C365.288 44.0974 364.364 42.1938 364.041 40.6035C363.912 39.9289 363.891 39.3265 363.955 38.7964C363.998 38.3145 364.17 37.9048 364.385 37.5675C364.88 36.7724 365.718 36.2664 366.707 36.2664C367.695 36.2664 368.555 36.7483 369.028 37.5675C369.243 37.9289 369.393 38.3386 369.458 38.7964C369.544 39.3265 369.501 39.953 369.372 40.6035C369.049 42.1938 368.125 44.0733 366.707 46.0973ZM377.196 47.4948C377.002 49.037 376.099 50.3622 374.81 50.9405C374.186 51.2296 373.499 51.326 372.811 51.2296C372.144 51.1333 371.5 50.9164 370.812 50.4586C369.866 49.8803 368.92 48.9647 367.803 47.5912C369.544 45.2058 370.597 43.0131 370.984 41.0614C371.177 40.1457 371.199 39.3265 371.113 38.5554C371.005 37.8085 370.769 37.1338 370.403 36.5555C369.587 35.2303 368.211 34.4592 366.685 34.4592C365.159 34.4592 363.783 35.2543 362.967 36.5555C362.601 37.1338 362.365 37.8326 362.257 38.5554C362.15 39.3265 362.171 40.1698 362.386 41.0614C362.773 43.0131 363.869 45.2299 365.567 47.6153C364.493 48.9647 363.525 49.8803 362.558 50.4827C361.87 50.9164 361.226 51.1574 360.559 51.2537C359.85 51.3501 359.162 51.2296 358.56 50.9646C357.271 50.3863 356.347 49.037 356.175 47.5189C356.089 46.772 356.153 46.0491 356.411 45.2299C356.497 44.9407 356.626 44.6516 356.755 44.2901C356.948 43.8082 357.142 43.3263 357.357 42.8203L357.378 42.7721C359.184 38.3868 361.14 33.8809 363.16 29.5196L363.246 29.351C363.461 28.9172 363.676 28.4353 363.869 28.0016C364.084 27.5197 364.321 27.086 364.6 26.7005C365.159 26.0017 365.89 25.6162 366.707 25.6162C367.523 25.6162 368.254 26.0017 368.813 26.7005C369.092 27.086 369.329 27.5197 369.544 28.0016C369.759 28.4353 369.974 28.9172 370.167 29.351L370.253 29.5196C372.252 33.905 374.208 38.4109 376.013 42.7962V42.8203C376.228 43.3022 376.4 43.8323 376.615 44.2901C376.744 44.6516 376.873 44.9407 376.959 45.2299C377.217 45.9768 377.303 46.7238 377.196 47.4948Z" fill="#4F5665"/>
<path d="M486.675 46.2196C483.042 46.2196 480.097 42.843 480.097 38.6779C480.097 34.5126 483.042 31.1392 486.675 31.1392C487.956 31.1392 489.152 31.5578 490.162 32.2834L486.675 38.6779L493.24 34.3343C492.527 33.0322 491.504 31.9101 490.267 31.0587C488.693 29.9788 486.503 29.3105 484.083 29.3105C480.629 29.3105 477.599 30.7487 475.91 32.9023C474.659 34.4943 473.914 36.4981 473.914 38.6778C473.914 40.8591 474.659 42.8642 475.91 44.4574C477.604 46.6137 480.588 48.0434 483.985 48.0434C487.381 48.0434 490.365 46.6126 492.06 44.4574C492.152 44.3387 492.242 44.2189 492.327 44.0947L492.071 42.9952C490.88 44.9433 488.908 46.2196 486.675 46.2196Z" fill="#4F5665"/>
<path d="M508.438 47.5899L505.683 35.8119C505.24 33.9086 503.728 32.5096 501.927 32.5096C501.46 32.5096 501.013 32.6053 500.598 32.7783L494.666 35.2499H500.767L501.809 39.7113C500.798 38.7139 499.481 38.1071 498.039 38.1071C495.175 38.1071 492.857 40.3061 492.857 43.0186C492.857 45.7314 495.175 47.9336 498.039 47.9336C500.1 47.9336 501.923 46.7771 503.048 45.0003L503.653 47.5899H508.438ZM500.034 45.7605C498.713 45.7605 497.642 44.5345 497.642 43.0186C497.642 41.5049 498.713 40.2779 500.034 40.2779C501.355 40.2779 502.426 41.5049 502.426 43.0186C502.426 44.5345 501.355 45.7605 500.034 45.7605Z" fill="#4F5665"/>
<path d="M519.672 32.5117C519.31 32.5117 518.968 32.6033 518.663 32.7673L514.855 34.8012C514.666 33.502 513.682 32.5117 512.494 32.5117C512.134 32.5117 511.791 32.6033 511.482 32.7673L506.833 35.25H510.102V47.5901H514.887V36.6228C514.887 35.8661 515.422 35.2501 516.084 35.2501C516.743 35.2501 517.281 35.8661 517.281 36.6228V47.5901H522.064V35.25C522.064 33.7367 520.992 32.5118 519.672 32.5118" fill="#4F5665"/>
<path d="M549.681 32.5117C549.318 32.5117 548.974 32.6033 548.665 32.7673L544.86 34.8012C544.673 33.502 543.688 32.5117 542.5 32.5117C542.14 32.5117 541.798 32.6033 541.488 32.7673L536.84 35.25H540.108V47.5901H544.893V36.6228C544.893 35.8661 545.428 35.2501 546.09 35.2501C546.751 35.2501 547.285 35.8661 547.285 36.6228V47.5901H552.072V35.25C552.072 33.7367 551 32.5118 549.681 32.5118" fill="#4F5665"/>
<path d="M537.613 40.2778C537.613 44.5671 534.58 48.0434 530.838 48.0434C527.093 48.0434 524.058 44.5671 524.058 40.2778C524.058 35.9897 527.093 32.5117 530.838 32.5117C534.58 32.5117 537.613 35.9898 537.613 40.2778ZM531.118 34.8687C530.905 33.9549 530.086 33.4124 529.288 33.6581C528.492 33.9027 528.016 34.8426 528.23 35.7563L530.555 45.6867C530.769 46.6014 531.587 47.1432 532.384 46.9014C533.182 46.654 533.656 45.7146 533.442 44.8011L531.118 34.8687Z" fill="#4F5665"/>
<path d="M628.148 10.4193H629.674C637.1 10.8961 642.394 14.107 646.32 18.6068C650.245 23.1067 653.146 29.0416 653.534 37.5333V39.2156C653.157 47.843 650.204 53.5371 646.32 58.1701C642.239 62.5708 637.222 65.905 629.65 66.3293H628.148C620.723 65.8515 615.428 62.642 611.503 58.1419C607.577 53.642 604.676 47.7072 604.288 39.2156V37.5333C604.307 37.5271 604.317 37.5098 604.313 37.4772C604.684 29.0179 607.601 23.0213 611.503 18.5788C615.422 14.1155 620.771 10.8817 628.148 10.4193ZM623.322 14.4289C621.859 14.875 620.547 15.4416 619.357 16.1112C615.738 18.1495 612.753 21.0655 610.665 24.8034C608.628 28.4518 606.864 33.1452 607.12 39.2996C607.281 43.1796 608.058 46.4434 609.287 49.2255C611.712 54.7188 615.405 58.7663 620.515 61.2264C623.042 62.4429 626.173 63.2962 629.699 63.1049C633.081 62.9215 636.012 62.0557 638.44 60.6655C643.199 57.9407 646.95 53.7366 649.028 47.9357C650.08 45.0014 650.875 41.6115 650.703 37.5051C650.378 29.7261 647.599 24.4515 643.932 20.4292C642.117 18.439 639.932 16.7461 637.357 15.5224C634.859 14.3352 631.607 13.455 628.124 13.6438C626.411 13.7366 624.796 13.9794 623.322 14.4289Z" fill="#4F5665"/>
<path d="M626.646 31.1122C627.426 31.7005 628.224 32.2686 628.961 32.9067C627.297 34.0963 625.666 35.3233 624.012 36.5237C624.263 36.7424 624.548 36.9218 624.799 37.1405C626.468 35.9371 628.136 34.7344 629.798 33.5235C630.543 34.0488 631.277 34.5872 631.965 35.1779C630.3 36.3755 628.69 37.6365 627.04 38.8509C627.285 39.0773 627.585 39.2407 627.853 39.4398C629.558 38.251 631.221 37.0138 632.9 35.7948V31.8132H636.594V39.7483C637.636 39.8136 638.785 39.7576 639.869 39.7761V43.5055H632.9V39.72C630.853 41.1365 628.755 42.7383 626.695 44.2344C624.551 42.6486 622.484 40.9738 620.343 39.3837C619.722 41.6224 618.249 43.3065 615.812 43.5055C614.292 43.6293 612.564 43.413 610.813 43.5055V31.8132C613.002 31.9783 615.406 31.4798 617.142 32.0935C618.676 32.6362 619.764 34.0304 620.269 35.7667C622.411 34.2343 624.52 32.6629 626.646 31.1122ZM614.334 35.5704V39.7763C615.214 39.7812 615.883 39.8394 616.403 39.3838C617.175 38.7062 617.331 37.0263 616.649 36.1312C616.194 35.5339 615.425 35.4086 614.359 35.4863C614.331 35.491 614.332 35.5307 614.334 35.5704ZM640.829 31.8132H644.522V39.7763H647.773V43.5056H640.804V31.8973C640.802 31.8575 640.8 31.8179 640.829 31.8132Z" fill="#4F5665"/>
</svg>
