<svg width="97" height="22" viewBox="0 0 97 22" fill="none" xmlns="http://www.w3.org/2000/svg">
<g clip-path="url(#clip0_44_326)">
<path d="M0 6C0 2.68629 2.68629 0 6 0H91C94.3137 0 97 2.68629 97 6V16C97 19.3137 94.3137 22 91 22H6C2.68629 22 0 19.3137 0 16V6Z" fill="#2948FF"/>
<g clip-path="url(#clip1_44_326)">
<path fill-rule="evenodd" clip-rule="evenodd" d="M17.5851 3.51936C16.6418 2.82688 15.3582 2.82688 14.4149 3.51936L13.4874 4.2003C13.3343 4.31269 13.1563 4.38642 12.9686 4.4152L11.8312 4.58958C10.6746 4.76691 9.76691 5.67456 9.58958 6.8312L9.4152 7.96858C9.38642 8.1563 9.31269 8.33429 9.2003 8.48738L8.51936 9.41493C7.82688 10.3582 7.82688 11.6418 8.51936 12.5851L9.2003 13.5126C9.31269 13.6657 9.38642 13.8437 9.4152 14.0314L9.58958 15.1688C9.76691 16.3254 10.6746 17.2331 11.8312 17.4104L12.9686 17.5848C13.1563 17.6136 13.3343 17.6873 13.4874 17.7997L14.4149 18.4806C15.3582 19.1731 16.6418 19.1731 17.5851 18.4806L18.5126 17.7997C18.6657 17.6873 18.8437 17.6136 19.0314 17.5848L20.1688 17.4104C21.3254 17.2331 22.2331 16.3254 22.4104 15.1688L22.5848 14.0314C22.6136 13.8437 22.6873 13.6657 22.7997 13.5126L23.4806 12.5851C24.1731 11.6418 24.1731 10.3582 23.4806 9.41493L22.7997 8.48738C22.6873 8.33429 22.6136 8.1563 22.5848 7.96858L22.4104 6.8312C22.2331 5.67456 21.3254 4.76691 20.1688 4.58958L19.0314 4.4152C18.8437 4.38642 18.6657 4.31269 18.5126 4.2003L17.5851 3.51936ZM15.3026 4.72851C15.7176 4.42383 16.2824 4.42383 16.6974 4.72851L17.6249 5.40945C17.9729 5.66489 18.3774 5.83246 18.8041 5.89787L19.9415 6.07225C20.4504 6.15027 20.8497 6.54962 20.9277 7.05852L21.1021 8.19589C21.1675 8.62256 21.3351 9.0271 21.5906 9.37506L22.2715 10.3026C22.5762 10.7176 22.5762 11.2824 22.2715 11.6974L21.5906 12.6249C21.3351 12.9729 21.1675 13.3774 21.1021 13.8041L20.9277 14.9415C20.8497 15.4504 20.4504 15.8497 19.9415 15.9277L18.8041 16.1021C18.3774 16.1675 17.9729 16.3351 17.6249 16.5906L16.6974 17.2715C16.2824 17.5762 15.7176 17.5762 15.3026 17.2715L14.3751 16.5906C14.0271 16.3351 13.6226 16.1675 13.1959 16.1021L12.0585 15.9277C11.5496 15.8497 11.1503 15.4504 11.0722 14.9415L10.8979 13.8041C10.8325 13.3774 10.6649 12.9729 10.4095 12.6249L9.72851 11.6974C9.42383 11.2824 9.42383 10.7176 9.72851 10.3026L10.4095 9.37505C10.6649 9.0271 10.8325 8.62256 10.8979 8.19589L11.0722 7.05852C11.1503 6.54962 11.5496 6.15027 12.0585 6.07225L13.1959 5.89787C13.6226 5.83246 14.0271 5.66489 14.3751 5.40945L15.3026 4.72851ZM19.2803 9.78033C19.5732 9.48744 19.5732 9.01256 19.2803 8.71967C18.9874 8.42678 18.5126 8.42678 18.2197 8.71967L15 11.9393L13.7803 10.7197C13.4874 10.4268 13.0126 10.4268 12.7197 10.7197C12.4268 11.0126 12.4268 11.4874 12.7197 11.7803L14.4697 13.5303C14.7626 13.8232 15.2374 13.8232 15.5303 13.5303L19.2803 9.78033Z" fill="white"/>
</g>
<path d="M36.382 16L32.042 6.2H33.162L37.222 15.426H36.606L40.694 6.2H41.744L37.404 16H36.382ZM45.4338 16.07C44.6684 16.07 43.9964 15.9113 43.4178 15.594C42.8391 15.2673 42.3864 14.824 42.0598 14.264C41.7331 13.6947 41.5698 13.046 41.5698 12.318C41.5698 11.59 41.7238 10.946 42.0318 10.386C42.3491 9.826 42.7784 9.38733 43.3198 9.07C43.8704 8.74333 44.4864 8.58 45.1678 8.58C45.8584 8.58 46.4698 8.73867 47.0018 9.056C47.5431 9.364 47.9678 9.80267 48.2758 10.372C48.5838 10.932 48.7378 11.5807 48.7378 12.318C48.7378 12.3647 48.7331 12.416 48.7238 12.472C48.7238 12.5187 48.7238 12.57 48.7238 12.626H42.3258V11.884H48.1918L47.7998 12.178C47.7998 11.646 47.6831 11.1747 47.4498 10.764C47.2258 10.344 46.9178 10.0173 46.5258 9.784C46.1338 9.55067 45.6811 9.434 45.1678 9.434C44.6638 9.434 44.2111 9.55067 43.8098 9.784C43.4084 10.0173 43.0958 10.344 42.8718 10.764C42.6478 11.184 42.5358 11.6647 42.5358 12.206V12.36C42.5358 12.92 42.6571 13.4147 42.8998 13.844C43.1518 14.264 43.4971 14.5953 43.9358 14.838C44.3838 15.0713 44.8924 15.188 45.4618 15.188C45.9098 15.188 46.3251 15.1087 46.7078 14.95C47.0998 14.7913 47.4358 14.5487 47.7158 14.222L48.2758 14.866C47.9491 15.258 47.5384 15.5567 47.0438 15.762C46.5584 15.9673 46.0218 16.07 45.4338 16.07ZM50.677 16V8.65H51.629V10.652L51.531 10.302C51.7363 9.742 52.0817 9.31733 52.567 9.028C53.0523 8.72933 53.6543 8.58 54.373 8.58V9.546C54.3357 9.546 54.2983 9.546 54.261 9.546C54.2237 9.53667 54.1863 9.532 54.149 9.532C53.3743 9.532 52.7677 9.77 52.329 10.246C51.8903 10.7127 51.671 11.38 51.671 12.248V16H50.677ZM56.1027 16V8.65H57.0967V16H56.1027ZM56.6067 7.026C56.4014 7.026 56.2287 6.956 56.0887 6.816C55.9487 6.676 55.8787 6.508 55.8787 6.312C55.8787 6.116 55.9487 5.95267 56.0887 5.822C56.2287 5.682 56.4014 5.612 56.6067 5.612C56.8121 5.612 56.9847 5.67733 57.1247 5.808C57.2647 5.93867 57.3347 6.102 57.3347 6.298C57.3347 6.50333 57.2647 6.676 57.1247 6.816C56.9941 6.956 56.8214 7.026 56.6067 7.026ZM59.9465 16V7.726C59.9465 7.07267 60.1378 6.54533 60.5205 6.144C60.9032 5.74267 61.4538 5.542 62.1725 5.542C62.4525 5.542 62.7232 5.57933 62.9845 5.654C63.2458 5.72867 63.4652 5.84533 63.6425 6.004L63.3065 6.746C63.1665 6.62467 63.0032 6.536 62.8165 6.48C62.6298 6.41467 62.4292 6.382 62.2145 6.382C61.7945 6.382 61.4725 6.49867 61.2485 6.732C61.0245 6.96533 60.9125 7.31067 60.9125 7.768V8.888L60.9405 9.35V16H59.9465ZM58.6305 9.476V8.65H63.1805V9.476H58.6305ZM64.5245 16V8.65H65.5185V16H64.5245ZM65.0285 7.026C64.8232 7.026 64.6505 6.956 64.5105 6.816C64.3705 6.676 64.3005 6.508 64.3005 6.312C64.3005 6.116 64.3705 5.95267 64.5105 5.822C64.6505 5.682 64.8232 5.612 65.0285 5.612C65.2338 5.612 65.4065 5.67733 65.5465 5.808C65.6865 5.93867 65.7565 6.102 65.7565 6.298C65.7565 6.50333 65.6865 6.676 65.5465 6.816C65.4158 6.956 65.2432 7.026 65.0285 7.026ZM71.3478 16.07C70.5824 16.07 69.9104 15.9113 69.3318 15.594C68.7531 15.2673 68.3004 14.824 67.9738 14.264C67.6471 13.6947 67.4838 13.046 67.4838 12.318C67.4838 11.59 67.6378 10.946 67.9458 10.386C68.2631 9.826 68.6924 9.38733 69.2338 9.07C69.7844 8.74333 70.4004 8.58 71.0818 8.58C71.7724 8.58 72.3838 8.73867 72.9158 9.056C73.4571 9.364 73.8818 9.80267 74.1898 10.372C74.4978 10.932 74.6518 11.5807 74.6518 12.318C74.6518 12.3647 74.6471 12.416 74.6378 12.472C74.6378 12.5187 74.6378 12.57 74.6378 12.626H68.2398V11.884H74.1058L73.7138 12.178C73.7138 11.646 73.5971 11.1747 73.3638 10.764C73.1398 10.344 72.8318 10.0173 72.4398 9.784C72.0478 9.55067 71.5951 9.434 71.0818 9.434C70.5778 9.434 70.1251 9.55067 69.7238 9.784C69.3224 10.0173 69.0098 10.344 68.7858 10.764C68.5618 11.184 68.4498 11.6647 68.4498 12.206V12.36C68.4498 12.92 68.5711 13.4147 68.8138 13.844C69.0658 14.264 69.4111 14.5953 69.8498 14.838C70.2978 15.0713 70.8064 15.188 71.3758 15.188C71.8238 15.188 72.2391 15.1087 72.6218 14.95C73.0138 14.7913 73.3498 14.5487 73.6298 14.222L74.1898 14.866C73.8631 15.258 73.4524 15.5567 72.9578 15.762C72.4724 15.9673 71.9358 16.07 71.3478 16.07ZM79.517 16.07C78.817 16.07 78.187 15.9113 77.627 15.594C77.0763 15.2767 76.6423 14.838 76.325 14.278C76.0076 13.7087 75.849 13.0553 75.849 12.318C75.849 11.5713 76.0076 10.918 76.325 10.358C76.6423 9.798 77.0763 9.364 77.627 9.056C78.187 8.73867 78.817 8.58 79.517 8.58C80.161 8.58 80.735 8.72467 81.239 9.014C81.7523 9.30333 82.1583 9.728 82.457 10.288C82.765 10.8387 82.919 11.5153 82.919 12.318C82.919 13.1113 82.7696 13.788 82.471 14.348C82.1723 14.908 81.7663 15.3373 81.253 15.636C80.749 15.9253 80.1703 16.07 79.517 16.07ZM79.587 15.188C80.1096 15.188 80.5763 15.0713 80.987 14.838C81.407 14.5953 81.7336 14.2593 81.967 13.83C82.2096 13.3913 82.331 12.8873 82.331 12.318C82.331 11.7393 82.2096 11.2353 81.967 10.806C81.7336 10.3767 81.407 10.0453 80.987 9.812C80.5763 9.56933 80.1096 9.448 79.587 9.448C79.0736 9.448 78.6116 9.56933 78.201 9.812C77.7903 10.0453 77.4636 10.3767 77.221 10.806C76.9783 11.2353 76.857 11.7393 76.857 12.318C76.857 12.8873 76.9783 13.3913 77.221 13.83C77.4636 14.2593 77.7903 14.5953 78.201 14.838C78.6116 15.0713 79.0736 15.188 79.587 15.188ZM82.359 16V13.788L82.457 12.304L82.317 10.82V5.612H83.311V16H82.359Z" fill="white"/>
</g>
<defs>
<clipPath id="clip0_44_326">
<path d="M0 6C0 2.68629 2.68629 0 6 0H91C94.3137 0 97 2.68629 97 6V16C97 19.3137 94.3137 22 91 22H6C2.68629 22 0 19.3137 0 16V6Z" fill="white"/>
</clipPath>
<clipPath id="clip1_44_326">
<rect width="16" height="16" fill="white" transform="translate(8 3)"/>
</clipPath>
</defs>
</svg>
