<svg width="335" height="777" viewBox="0 0 335 777" fill="none" xmlns="http://www.w3.org/2000/svg">
<path d="M70.187 65.252V44.132L71.563 45.636H65.131V42.852H73.355V65.252H70.187ZM87.4068 65.508C85.6574 65.508 84.0894 65.06 82.7028 64.164C81.3374 63.268 80.2494 61.9666 79.4388 60.26C78.6494 58.5533 78.2548 56.484 78.2548 54.052C78.2548 51.62 78.6494 49.5506 79.4388 47.844C80.2494 46.1373 81.3374 44.836 82.7028 43.94C84.0894 43.044 85.6574 42.596 87.4068 42.596C89.1348 42.596 90.6921 43.044 92.0788 43.94C93.4654 44.836 94.5534 46.1373 95.3428 47.844C96.1321 49.5506 96.5268 51.62 96.5268 54.052C96.5268 56.484 96.1321 58.5533 95.3428 60.26C94.5534 61.9666 93.4654 63.268 92.0788 64.164C90.6921 65.06 89.1348 65.508 87.4068 65.508ZM87.4068 62.66C88.5801 62.66 89.6041 62.34 90.4788 61.7C91.3748 61.06 92.0681 60.1 92.5588 58.82C93.0708 57.54 93.3268 55.9506 93.3268 54.052C93.3268 52.1533 93.0708 50.564 92.5588 49.284C92.0681 48.004 91.3748 47.044 90.4788 46.404C89.6041 45.764 88.5801 45.444 87.4068 45.444C86.2334 45.444 85.1988 45.764 84.3028 46.404C83.4068 47.044 82.7028 48.004 82.1908 49.284C81.7001 50.564 81.4548 52.1533 81.4548 54.052C81.4548 55.9506 81.7001 57.54 82.1908 58.82C82.7028 60.1 83.4068 61.06 84.3028 61.7C85.1988 62.34 86.2334 62.66 87.4068 62.66ZM108.751 65.508C107.001 65.508 105.433 65.06 104.047 64.164C102.681 63.268 101.593 61.9666 100.783 60.26C99.9932 58.5533 99.5985 56.484 99.5985 54.052C99.5985 51.62 99.9932 49.5506 100.783 47.844C101.593 46.1373 102.681 44.836 104.047 43.94C105.433 43.044 107.001 42.596 108.751 42.596C110.479 42.596 112.036 43.044 113.423 43.94C114.809 44.836 115.897 46.1373 116.687 47.844C117.476 49.5506 117.871 51.62 117.871 54.052C117.871 56.484 117.476 58.5533 116.687 60.26C115.897 61.9666 114.809 63.268 113.423 64.164C112.036 65.06 110.479 65.508 108.751 65.508ZM108.751 62.66C109.924 62.66 110.948 62.34 111.823 61.7C112.719 61.06 113.412 60.1 113.903 58.82C114.415 57.54 114.671 55.9506 114.671 54.052C114.671 52.1533 114.415 50.564 113.903 49.284C113.412 48.004 112.719 47.044 111.823 46.404C110.948 45.764 109.924 45.444 108.751 45.444C107.577 45.444 106.543 45.764 105.647 46.404C104.751 47.044 104.047 48.004 103.535 49.284C103.044 50.564 102.799 52.1533 102.799 54.052C102.799 55.9506 103.044 57.54 103.535 58.82C104.047 60.1 104.751 61.06 105.647 61.7C106.543 62.34 107.577 62.66 108.751 62.66ZM127.593 61.06V47.044H130.281V61.06H127.593ZM121.769 55.332V52.804H136.105V55.332H121.769ZM154.652 65.252V45.636H146.972V42.852H165.5V45.636H157.82V65.252H154.652ZM168.131 65.252V48.292H171.075V52.9L170.787 51.748C171.256 50.5746 172.045 49.6786 173.155 49.06C174.264 48.4413 175.629 48.132 177.251 48.132V51.108C177.123 51.0866 176.995 51.076 176.867 51.076C176.76 51.076 176.653 51.076 176.547 51.076C174.904 51.076 173.603 51.5666 172.643 52.548C171.683 53.5293 171.203 54.948 171.203 56.804V65.252H168.131ZM188.392 65.444C186.941 65.444 185.661 65.1773 184.552 64.644C183.464 64.1106 182.61 63.3 181.992 62.212C181.394 61.1026 181.096 59.716 181.096 58.052V48.292H184.168V57.7C184.168 59.364 184.562 60.612 185.352 61.444C186.162 62.276 187.293 62.692 188.744 62.692C189.81 62.692 190.738 62.4786 191.528 62.052C192.317 61.604 192.925 60.964 193.352 60.132C193.778 59.2786 193.992 58.2546 193.992 57.06V48.292H197.064V65.252H194.152V60.676L194.632 61.892C194.077 63.0226 193.245 63.8973 192.136 64.516C191.026 65.1346 189.778 65.444 188.392 65.444ZM207.776 65.444C206.368 65.444 205.024 65.252 203.744 64.868C202.485 64.484 201.493 64.0146 200.768 63.46L202.048 61.028C202.773 61.5186 203.669 61.9346 204.736 62.276C205.803 62.6173 206.891 62.788 208 62.788C209.429 62.788 210.453 62.5853 211.072 62.18C211.712 61.7746 212.032 61.2093 212.032 60.484C212.032 59.9506 211.84 59.5346 211.456 59.236C211.072 58.9373 210.56 58.7133 209.92 58.564C209.301 58.4146 208.608 58.2866 207.84 58.18C207.072 58.052 206.304 57.9026 205.536 57.732C204.768 57.54 204.064 57.284 203.424 56.964C202.784 56.6226 202.272 56.164 201.888 55.588C201.504 54.9906 201.312 54.2013 201.312 53.22C201.312 52.196 201.6 51.3 202.176 50.532C202.752 49.764 203.563 49.1773 204.608 48.772C205.675 48.3453 206.933 48.132 208.384 48.132C209.493 48.132 210.613 48.2706 211.744 48.548C212.896 48.804 213.835 49.1773 214.56 49.668L213.248 52.1C212.48 51.588 211.68 51.236 210.848 51.044C210.016 50.852 209.184 50.756 208.352 50.756C207.008 50.756 206.005 50.98 205.344 51.428C204.683 51.8546 204.352 52.4093 204.352 53.092C204.352 53.668 204.544 54.116 204.928 54.436C205.333 54.7346 205.845 54.9693 206.464 55.14C207.104 55.3106 207.808 55.46 208.576 55.588C209.344 55.6946 210.112 55.844 210.88 56.036C211.648 56.2066 212.341 56.452 212.96 56.772C213.6 57.092 214.112 57.54 214.496 58.116C214.901 58.692 215.104 59.46 215.104 60.42C215.104 61.444 214.805 62.3293 214.208 63.076C213.611 63.8226 212.768 64.4093 211.68 64.836C210.592 65.2413 209.291 65.444 207.776 65.444ZM224.767 65.444C223.061 65.444 221.738 64.9853 220.799 64.068C219.861 63.1506 219.391 61.8386 219.391 60.132V44.58H222.463V60.004C222.463 60.9213 222.687 61.6253 223.135 62.116C223.605 62.6066 224.266 62.852 225.119 62.852C226.079 62.852 226.879 62.5853 227.519 62.052L228.479 64.26C228.01 64.6653 227.445 64.964 226.783 65.156C226.143 65.348 225.471 65.444 224.767 65.444ZM216.511 50.82V48.292H227.327V50.82H216.511ZM239.183 65.444C237.369 65.444 235.769 65.0706 234.383 64.324C233.017 63.5773 231.951 62.5533 231.183 61.252C230.436 59.9506 230.063 58.4573 230.063 56.772C230.063 55.0866 230.425 53.5933 231.151 52.292C231.897 50.9906 232.911 49.9773 234.191 49.252C235.492 48.5053 236.953 48.132 238.575 48.132C240.217 48.132 241.668 48.4946 242.927 49.22C244.185 49.9453 245.167 50.9693 245.871 52.292C246.596 53.5933 246.959 55.1186 246.959 56.868C246.959 56.996 246.948 57.1453 246.927 57.316C246.927 57.4866 246.916 57.6466 246.895 57.796H232.463V55.588H245.295L244.047 56.356C244.068 55.268 243.844 54.2973 243.375 53.444C242.905 52.5906 242.255 51.9293 241.423 51.46C240.612 50.9693 239.663 50.724 238.575 50.724C237.508 50.724 236.559 50.9693 235.727 51.46C234.895 51.9293 234.244 52.6013 233.775 53.476C233.305 54.3293 233.071 55.3106 233.071 56.42V56.932C233.071 58.0626 233.327 59.076 233.839 59.972C234.372 60.8466 235.108 61.5293 236.047 62.02C236.985 62.5106 238.063 62.756 239.279 62.756C240.281 62.756 241.188 62.5853 241.999 62.244C242.831 61.9026 243.556 61.3906 244.175 60.708L245.871 62.692C245.103 63.588 244.143 64.2706 242.991 64.74C241.86 65.2093 240.591 65.444 239.183 65.444ZM258.233 65.444C256.59 65.444 255.118 65.0813 253.817 64.356C252.537 63.6306 251.523 62.6173 250.777 61.316C250.03 60.0146 249.657 58.5 249.657 56.772C249.657 55.044 250.03 53.54 250.777 52.26C251.523 50.9586 252.537 49.9453 253.817 49.22C255.118 48.4946 256.59 48.132 258.233 48.132C259.662 48.132 260.953 48.452 262.105 49.092C263.257 49.732 264.174 50.692 264.857 51.972C265.561 53.252 265.913 54.852 265.913 56.772C265.913 58.692 265.571 60.292 264.889 61.572C264.227 62.852 263.321 63.8226 262.169 64.484C261.017 65.124 259.705 65.444 258.233 65.444ZM258.489 62.756C259.555 62.756 260.515 62.5106 261.369 62.02C262.243 61.5293 262.926 60.836 263.417 59.94C263.929 59.0226 264.185 57.9666 264.185 56.772C264.185 55.556 263.929 54.5106 263.417 53.636C262.926 52.74 262.243 52.0466 261.369 51.556C260.515 51.0653 259.555 50.82 258.489 50.82C257.401 50.82 256.43 51.0653 255.577 51.556C254.723 52.0466 254.041 52.74 253.529 53.636C253.017 54.5106 252.761 55.556 252.761 56.772C252.761 57.9666 253.017 59.0226 253.529 59.94C254.041 60.836 254.723 61.5293 255.577 62.02C256.43 62.5106 257.401 62.756 258.489 62.756ZM264.281 65.252V60.676L264.472 56.74L264.153 52.804V41.508H267.225V65.252H264.281ZM101.313 104.252V81.852H110.049C112.012 81.852 113.686 82.1613 115.073 82.78C116.46 83.3986 117.526 84.2946 118.273 85.468C119.02 86.6413 119.393 88.0386 119.393 89.66C119.393 91.2813 119.02 92.6786 118.273 93.852C117.526 95.004 116.46 95.9 115.073 96.54C113.686 97.1586 112.012 97.468 110.049 97.468H103.073L104.513 95.964V104.252H101.313ZM104.513 96.284L103.073 94.684H109.953C112.001 94.684 113.548 94.2466 114.593 93.372C115.66 92.4973 116.193 91.26 116.193 89.66C116.193 88.06 115.66 86.8226 114.593 85.948C113.548 85.0733 112.001 84.636 109.953 84.636H103.073L104.513 83.036V96.284ZM134.018 104.252V100.668L133.858 99.996V93.884C133.858 92.5826 133.474 91.58 132.706 90.876C131.959 90.1506 130.829 89.788 129.314 89.788C128.311 89.788 127.33 89.9586 126.37 90.3C125.41 90.62 124.599 91.0573 123.938 91.612L122.658 89.308C123.533 88.604 124.578 88.0706 125.794 87.708C127.031 87.324 128.322 87.132 129.666 87.132C131.991 87.132 133.783 87.6973 135.042 88.828C136.301 89.9586 136.93 91.6866 136.93 94.012V104.252H134.018ZM128.45 104.444C127.191 104.444 126.082 104.231 125.122 103.804C124.183 103.377 123.458 102.791 122.946 102.044C122.434 101.276 122.178 100.412 122.178 99.452C122.178 98.5346 122.391 97.7026 122.818 96.956C123.266 96.2093 123.981 95.612 124.962 95.164C125.965 94.716 127.309 94.492 128.994 94.492H134.37V96.7H129.122C127.586 96.7 126.551 96.956 126.018 97.468C125.485 97.98 125.218 98.5986 125.218 99.324C125.218 100.156 125.549 100.828 126.21 101.34C126.871 101.831 127.789 102.076 128.962 102.076C130.114 102.076 131.117 101.82 131.97 101.308C132.845 100.796 133.474 100.049 133.858 99.068L134.466 101.18C134.061 102.183 133.346 102.983 132.322 103.58C131.298 104.156 130.007 104.444 128.45 104.444ZM142.615 104.252V87.292H145.559V91.9L145.271 90.748C145.74 89.5746 146.53 88.6786 147.639 88.06C148.748 87.4413 150.114 87.132 151.735 87.132V90.108C151.607 90.0866 151.479 90.076 151.351 90.076C151.244 90.076 151.138 90.076 151.031 90.076C149.388 90.076 148.087 90.5666 147.127 91.548C146.167 92.5293 145.687 93.948 145.687 95.804V104.252H142.615ZM162.033 104.444C160.326 104.444 159.004 103.985 158.065 103.068C157.126 102.151 156.657 100.839 156.657 99.132V83.58H159.729V99.004C159.729 99.9213 159.953 100.625 160.401 101.116C160.87 101.607 161.532 101.852 162.385 101.852C163.345 101.852 164.145 101.585 164.785 101.052L165.745 103.26C165.276 103.665 164.71 103.964 164.049 104.156C163.409 104.348 162.737 104.444 162.033 104.444ZM153.777 89.82V87.292H164.593V89.82H153.777ZM178.515 87.132C179.902 87.132 181.118 87.3986 182.163 87.932C183.23 88.4653 184.062 89.276 184.659 90.364C185.256 91.452 185.555 92.828 185.555 94.492V104.252H182.483V94.844C182.483 93.2013 182.078 91.964 181.267 91.132C180.478 90.3 179.358 89.884 177.907 89.884C176.819 89.884 175.87 90.0973 175.059 90.524C174.248 90.9506 173.619 91.58 173.171 92.412C172.744 93.244 172.531 94.2786 172.531 95.516V104.252H169.459V87.292H172.403V91.868L171.923 90.652C172.478 89.5426 173.331 88.6786 174.483 88.06C175.635 87.4413 176.979 87.132 178.515 87.132ZM198.792 104.444C196.979 104.444 195.379 104.071 193.992 103.324C192.627 102.577 191.56 101.553 190.792 100.252C190.045 98.9506 189.672 97.4573 189.672 95.772C189.672 94.0866 190.035 92.5933 190.76 91.292C191.507 89.9906 192.52 88.9773 193.8 88.252C195.101 87.5053 196.563 87.132 198.184 87.132C199.827 87.132 201.277 87.4946 202.536 88.22C203.795 88.9453 204.776 89.9693 205.48 91.292C206.205 92.5933 206.568 94.1186 206.568 95.868C206.568 95.996 206.557 96.1453 206.536 96.316C206.536 96.4866 206.525 96.6466 206.504 96.796H192.072V94.588H204.904L203.656 95.356C203.677 94.268 203.453 93.2973 202.984 92.444C202.515 91.5906 201.864 90.9293 201.032 90.46C200.221 89.9693 199.272 89.724 198.184 89.724C197.117 89.724 196.168 89.9693 195.336 90.46C194.504 90.9293 193.853 91.6013 193.384 92.476C192.915 93.3293 192.68 94.3106 192.68 95.42V95.932C192.68 97.0626 192.936 98.076 193.448 98.972C193.981 99.8466 194.717 100.529 195.656 101.02C196.595 101.511 197.672 101.756 198.888 101.756C199.891 101.756 200.797 101.585 201.608 101.244C202.44 100.903 203.165 100.391 203.784 99.708L205.48 101.692C204.712 102.588 203.752 103.271 202.6 103.74C201.469 104.209 200.2 104.444 198.792 104.444ZM210.834 104.252V87.292H213.778V91.9L213.49 90.748C213.959 89.5746 214.749 88.6786 215.858 88.06C216.967 87.4413 218.333 87.132 219.954 87.132V90.108C219.826 90.0866 219.698 90.076 219.57 90.076C219.463 90.076 219.357 90.076 219.25 90.076C217.607 90.076 216.306 90.5666 215.346 91.548C214.386 92.5293 213.906 93.948 213.906 95.804V104.252H210.834ZM228.792 104.444C227.384 104.444 226.04 104.252 224.76 103.868C223.501 103.484 222.509 103.015 221.784 102.46L223.064 100.028C223.789 100.519 224.685 100.935 225.752 101.276C226.818 101.617 227.906 101.788 229.016 101.788C230.445 101.788 231.469 101.585 232.088 101.18C232.728 100.775 233.048 100.209 233.048 99.484C233.048 98.9506 232.856 98.5346 232.472 98.236C232.088 97.9373 231.576 97.7133 230.936 97.564C230.317 97.4146 229.624 97.2866 228.856 97.18C228.088 97.052 227.32 96.9026 226.552 96.732C225.784 96.54 225.08 96.284 224.44 95.964C223.8 95.6226 223.288 95.164 222.904 94.588C222.52 93.9906 222.328 93.2013 222.328 92.22C222.328 91.196 222.616 90.3 223.192 89.532C223.768 88.764 224.578 88.1773 225.624 87.772C226.69 87.3453 227.949 87.132 229.4 87.132C230.509 87.132 231.629 87.2706 232.76 87.548C233.912 87.804 234.85 88.1773 235.576 88.668L234.264 91.1C233.496 90.588 232.696 90.236 231.864 90.044C231.032 89.852 230.2 89.756 229.368 89.756C228.024 89.756 227.021 89.98 226.36 90.428C225.698 90.8546 225.368 91.4093 225.368 92.092C225.368 92.668 225.56 93.116 225.944 93.436C226.349 93.7346 226.861 93.9693 227.48 94.14C228.12 94.3106 228.824 94.46 229.592 94.588C230.36 94.6946 231.128 94.844 231.896 95.036C232.664 95.2066 233.357 95.452 233.976 95.772C234.616 96.092 235.128 96.54 235.512 97.116C235.917 97.692 236.12 98.46 236.12 99.42C236.12 100.444 235.821 101.329 235.224 102.076C234.626 102.823 233.784 103.409 232.696 103.836C231.608 104.241 230.306 104.444 228.792 104.444Z" fill="#0B132A"/>
<path d="M16.6493 153.252L12.8733 142.052H14.0893L17.6253 152.596H17.0173L20.6653 142.052H21.7533L25.3533 152.596H24.7773L28.3453 142.052H29.4813L25.7053 153.252H24.4573L21.0173 143.252H21.3373L17.8813 153.252H16.6493ZM34.3395 153.332C33.4648 153.332 32.6968 153.151 32.0355 152.788C31.3742 152.415 30.8568 151.908 30.4835 151.268C30.1102 150.617 29.9235 149.876 29.9235 149.044C29.9235 148.212 30.0995 147.476 30.4515 146.836C30.8142 146.196 31.3048 145.695 31.9235 145.332C32.5528 144.959 33.2568 144.772 34.0355 144.772C34.8248 144.772 35.5235 144.953 36.1315 145.316C36.7502 145.668 37.2355 146.169 37.5875 146.82C37.9395 147.46 38.1155 148.201 38.1155 149.044C38.1155 149.097 38.1102 149.156 38.0995 149.22C38.0995 149.273 38.0995 149.332 38.0995 149.396H30.7875V148.548H37.4915L37.0435 148.884C37.0435 148.276 36.9102 147.737 36.6435 147.268C36.3875 146.788 36.0355 146.415 35.5875 146.148C35.1395 145.881 34.6222 145.748 34.0355 145.748C33.4595 145.748 32.9422 145.881 32.4835 146.148C32.0248 146.415 31.6675 146.788 31.4115 147.268C31.1555 147.748 31.0275 148.297 31.0275 148.916V149.092C31.0275 149.732 31.1662 150.297 31.4435 150.788C31.7315 151.268 32.1262 151.647 32.6275 151.924C33.1395 152.191 33.7208 152.324 34.3715 152.324C34.8835 152.324 35.3582 152.233 35.7955 152.052C36.2435 151.871 36.6275 151.593 36.9475 151.22L37.5875 151.956C37.2142 152.404 36.7448 152.745 36.1795 152.98C35.6248 153.215 35.0115 153.332 34.3395 153.332ZM48.9033 144.772C49.5859 144.772 50.1833 144.905 50.6953 145.172C51.2179 145.428 51.6233 145.823 51.9113 146.356C52.2099 146.889 52.3593 147.561 52.3593 148.372V153.252H51.2233V148.484C51.2233 147.599 50.9993 146.932 50.5513 146.484C50.1139 146.025 49.4953 145.796 48.6953 145.796C48.0979 145.796 47.5753 145.919 47.1273 146.164C46.6899 146.399 46.3486 146.745 46.1033 147.204C45.8686 147.652 45.7513 148.196 45.7513 148.836V153.252H44.6153V141.38H45.7513V147.156L45.5273 146.724C45.7939 146.116 46.2206 145.641 46.8073 145.3C47.3939 144.948 48.0926 144.772 48.9033 144.772ZM60.6918 153.252V151.396L60.6438 151.092V147.988C60.6438 147.273 60.4411 146.724 60.0358 146.34C59.6411 145.956 59.0491 145.764 58.2598 145.764C57.7158 145.764 57.1984 145.855 56.7078 146.036C56.2171 146.217 55.8011 146.457 55.4598 146.756L54.9478 145.908C55.3744 145.545 55.8864 145.268 56.4838 145.076C57.0811 144.873 57.7104 144.772 58.3718 144.772C59.4598 144.772 60.2971 145.044 60.8838 145.588C61.4811 146.121 61.7798 146.937 61.7798 148.036V153.252H60.6918ZM57.7958 153.332C57.1664 153.332 56.6171 153.231 56.1478 153.028C55.6891 152.815 55.3371 152.527 55.0918 152.164C54.8464 151.791 54.7238 151.364 54.7238 150.884C54.7238 150.447 54.8251 150.052 55.0278 149.7C55.2411 149.337 55.5824 149.049 56.0518 148.836C56.5318 148.612 57.1718 148.5 57.9718 148.5H60.8678V149.348H58.0038C57.1931 149.348 56.6278 149.492 56.3078 149.78C55.9984 150.068 55.8438 150.425 55.8438 150.852C55.8438 151.332 56.0304 151.716 56.4038 152.004C56.7771 152.292 57.2998 152.436 57.9718 152.436C58.6118 152.436 59.1611 152.292 59.6198 152.004C60.0891 151.705 60.4304 151.279 60.6438 150.724L60.8998 151.508C60.6864 152.063 60.3131 152.505 59.7798 152.836C59.2571 153.167 58.5958 153.332 57.7958 153.332ZM66.869 153.252L63.141 144.852H64.325L67.749 152.644H67.189L70.661 144.852H71.781L68.037 153.252H66.869ZM76.7145 153.332C75.8398 153.332 75.0718 153.151 74.4105 152.788C73.7492 152.415 73.2318 151.908 72.8585 151.268C72.4852 150.617 72.2985 149.876 72.2985 149.044C72.2985 148.212 72.4745 147.476 72.8265 146.836C73.1892 146.196 73.6798 145.695 74.2985 145.332C74.9278 144.959 75.6318 144.772 76.4105 144.772C77.1998 144.772 77.8985 144.953 78.5065 145.316C79.1252 145.668 79.6105 146.169 79.9625 146.82C80.3145 147.46 80.4905 148.201 80.4905 149.044C80.4905 149.097 80.4852 149.156 80.4745 149.22C80.4745 149.273 80.4745 149.332 80.4745 149.396H73.1625V148.548H79.8665L79.4185 148.884C79.4185 148.276 79.2852 147.737 79.0185 147.268C78.7625 146.788 78.4105 146.415 77.9625 146.148C77.5145 145.881 76.9972 145.748 76.4105 145.748C75.8345 145.748 75.3172 145.881 74.8585 146.148C74.3998 146.415 74.0425 146.788 73.7865 147.268C73.5305 147.748 73.4025 148.297 73.4025 148.916V149.092C73.4025 149.732 73.5412 150.297 73.8185 150.788C74.1065 151.268 74.5012 151.647 75.0025 151.924C75.5145 152.191 76.0958 152.324 76.7465 152.324C77.2585 152.324 77.7332 152.233 78.1705 152.052C78.6185 151.871 79.0025 151.593 79.3225 151.22L79.9625 151.956C79.5892 152.404 79.1198 152.745 78.5545 152.98C77.9998 153.215 77.3865 153.332 76.7145 153.332ZM86.9903 153.252V144.852H88.0783V147.14L87.9663 146.74C88.2009 146.1 88.5956 145.615 89.1503 145.284C89.7049 144.943 90.3929 144.772 91.2143 144.772V145.876C91.1716 145.876 91.1289 145.876 91.0863 145.876C91.0436 145.865 91.0009 145.86 90.9583 145.86C90.0729 145.86 89.3796 146.132 88.8783 146.676C88.3769 147.209 88.1263 147.972 88.1263 148.964V153.252H86.9903ZM96.777 153.332C95.9023 153.332 95.1343 153.151 94.473 152.788C93.8117 152.415 93.2943 151.908 92.921 151.268C92.5477 150.617 92.361 149.876 92.361 149.044C92.361 148.212 92.537 147.476 92.889 146.836C93.2517 146.196 93.7423 145.695 94.361 145.332C94.9903 144.959 95.6943 144.772 96.473 144.772C97.2623 144.772 97.961 144.953 98.569 145.316C99.1877 145.668 99.673 146.169 100.025 146.82C100.377 147.46 100.553 148.201 100.553 149.044C100.553 149.097 100.548 149.156 100.537 149.22C100.537 149.273 100.537 149.332 100.537 149.396H93.225V148.548H99.929L99.481 148.884C99.481 148.276 99.3477 147.737 99.081 147.268C98.825 146.788 98.473 146.415 98.025 146.148C97.577 145.881 97.0597 145.748 96.473 145.748C95.897 145.748 95.3797 145.881 94.921 146.148C94.4623 146.415 94.105 146.788 93.849 147.268C93.593 147.748 93.465 148.297 93.465 148.916V149.092C93.465 149.732 93.6037 150.297 93.881 150.788C94.169 151.268 94.5637 151.647 95.065 151.924C95.577 152.191 96.1583 152.324 96.809 152.324C97.321 152.324 97.7957 152.233 98.233 152.052C98.681 151.871 99.065 151.593 99.385 151.22L100.025 151.956C99.6517 152.404 99.1823 152.745 98.617 152.98C98.0623 153.215 97.449 153.332 96.777 153.332ZM107.895 153.252V151.396L107.847 151.092V147.988C107.847 147.273 107.644 146.724 107.239 146.34C106.844 145.956 106.252 145.764 105.463 145.764C104.919 145.764 104.402 145.855 103.911 146.036C103.42 146.217 103.004 146.457 102.663 146.756L102.151 145.908C102.578 145.545 103.09 145.268 103.687 145.076C104.284 144.873 104.914 144.772 105.575 144.772C106.663 144.772 107.5 145.044 108.087 145.588C108.684 146.121 108.983 146.937 108.983 148.036V153.252H107.895ZM104.999 153.332C104.37 153.332 103.82 153.231 103.351 153.028C102.892 152.815 102.54 152.527 102.295 152.164C102.05 151.791 101.927 151.364 101.927 150.884C101.927 150.447 102.028 150.052 102.231 149.7C102.444 149.337 102.786 149.049 103.255 148.836C103.735 148.612 104.375 148.5 105.175 148.5H108.071V149.348H105.207C104.396 149.348 103.831 149.492 103.511 149.78C103.202 150.068 103.047 150.425 103.047 150.852C103.047 151.332 103.234 151.716 103.607 152.004C103.98 152.292 104.503 152.436 105.175 152.436C105.815 152.436 106.364 152.292 106.823 152.004C107.292 151.705 107.634 151.279 107.847 150.724L108.103 151.508C107.89 152.063 107.516 152.505 106.983 152.836C106.46 153.167 105.799 153.332 104.999 153.332ZM115.556 153.332C114.724 153.332 113.978 153.151 113.316 152.788C112.666 152.415 112.154 151.908 111.78 151.268C111.407 150.617 111.22 149.876 111.22 149.044C111.22 148.201 111.407 147.46 111.78 146.82C112.154 146.18 112.666 145.679 113.316 145.316C113.978 144.953 114.724 144.772 115.556 144.772C116.271 144.772 116.916 144.911 117.492 145.188C118.068 145.465 118.522 145.881 118.852 146.436L118.004 147.012C117.716 146.585 117.359 146.271 116.932 146.068C116.506 145.865 116.042 145.764 115.54 145.764C114.943 145.764 114.404 145.903 113.924 146.18C113.444 146.447 113.066 146.825 112.788 147.316C112.511 147.807 112.372 148.383 112.372 149.044C112.372 149.705 112.511 150.281 112.788 150.772C113.066 151.263 113.444 151.647 113.924 151.924C114.404 152.191 114.943 152.324 115.54 152.324C116.042 152.324 116.506 152.223 116.932 152.02C117.359 151.817 117.716 151.508 118.004 151.092L118.852 151.668C118.522 152.212 118.068 152.628 117.492 152.916C116.916 153.193 116.271 153.332 115.556 153.332ZM125.247 144.772C125.93 144.772 126.527 144.905 127.039 145.172C127.562 145.428 127.967 145.823 128.255 146.356C128.554 146.889 128.703 147.561 128.703 148.372V153.252H127.567V148.484C127.567 147.599 127.343 146.932 126.895 146.484C126.458 146.025 125.839 145.796 125.039 145.796C124.442 145.796 123.919 145.919 123.471 146.164C123.034 146.399 122.692 146.745 122.447 147.204C122.212 147.652 122.095 148.196 122.095 148.836V153.252H120.959V141.38H122.095V147.156L121.871 146.724C122.138 146.116 122.564 145.641 123.151 145.3C123.738 144.948 124.436 144.772 125.247 144.772ZM135.34 153.332C134.465 153.332 133.697 153.151 133.036 152.788C132.374 152.415 131.857 151.908 131.484 151.268C131.11 150.617 130.924 149.876 130.924 149.044C130.924 148.212 131.1 147.476 131.452 146.836C131.814 146.196 132.305 145.695 132.924 145.332C133.553 144.959 134.257 144.772 135.036 144.772C135.825 144.772 136.524 144.953 137.132 145.316C137.75 145.668 138.236 146.169 138.588 146.82C138.94 147.46 139.116 148.201 139.116 149.044C139.116 149.097 139.11 149.156 139.1 149.22C139.1 149.273 139.1 149.332 139.1 149.396H131.788V148.548H138.492L138.044 148.884C138.044 148.276 137.91 147.737 137.644 147.268C137.388 146.788 137.036 146.415 136.588 146.148C136.14 145.881 135.622 145.748 135.036 145.748C134.46 145.748 133.942 145.881 133.484 146.148C133.025 146.415 132.668 146.788 132.412 147.268C132.156 147.748 132.028 148.297 132.028 148.916V149.092C132.028 149.732 132.166 150.297 132.444 150.788C132.732 151.268 133.126 151.647 133.628 151.924C134.14 152.191 134.721 152.324 135.372 152.324C135.884 152.324 136.358 152.233 136.796 152.052C137.244 151.871 137.628 151.593 137.948 151.22L138.588 151.956C138.214 152.404 137.745 152.745 137.18 152.98C136.625 153.215 136.012 153.332 135.34 153.332ZM144.772 153.332C143.972 153.332 143.252 153.151 142.612 152.788C141.982 152.425 141.486 151.924 141.124 151.284C140.761 150.633 140.58 149.887 140.58 149.044C140.58 148.191 140.761 147.444 141.124 146.804C141.486 146.164 141.982 145.668 142.612 145.316C143.252 144.953 143.972 144.772 144.772 144.772C145.508 144.772 146.164 144.937 146.74 145.268C147.326 145.599 147.79 146.084 148.132 146.724C148.484 147.353 148.66 148.127 148.66 149.044C148.66 149.951 148.489 150.724 148.148 151.364C147.806 152.004 147.342 152.495 146.756 152.836C146.18 153.167 145.518 153.332 144.772 153.332ZM144.852 152.324C145.449 152.324 145.982 152.191 146.452 151.924C146.932 151.647 147.305 151.263 147.572 150.772C147.849 150.271 147.988 149.695 147.988 149.044C147.988 148.383 147.849 147.807 147.572 147.316C147.305 146.825 146.932 146.447 146.452 146.18C145.982 145.903 145.449 145.764 144.852 145.764C144.265 145.764 143.737 145.903 143.268 146.18C142.798 146.447 142.425 146.825 142.148 147.316C141.87 147.807 141.732 148.383 141.732 149.044C141.732 149.695 141.87 150.271 142.148 150.772C142.425 151.263 142.798 151.647 143.268 151.924C143.737 152.191 144.265 152.324 144.852 152.324ZM148.02 153.252V150.724L148.132 149.028L147.972 147.332V141.38H149.108V153.252H148.02ZM160.043 156.436C159.275 156.436 158.539 156.324 157.835 156.1C157.131 155.876 156.56 155.556 156.123 155.14L156.699 154.276C157.094 154.628 157.579 154.905 158.155 155.108C158.742 155.321 159.36 155.428 160.011 155.428C161.078 155.428 161.862 155.177 162.363 154.676C162.864 154.185 163.115 153.417 163.115 152.372V150.276L163.275 148.836L163.163 147.396V144.852H164.251V152.228C164.251 153.679 163.894 154.74 163.179 155.412C162.475 156.095 161.43 156.436 160.043 156.436ZM159.835 152.932C159.035 152.932 158.315 152.761 157.675 152.42C157.035 152.068 156.528 151.583 156.155 150.964C155.792 150.345 155.611 149.636 155.611 148.836C155.611 148.036 155.792 147.332 156.155 146.724C156.528 146.105 157.035 145.625 157.675 145.284C158.315 144.943 159.035 144.772 159.835 144.772C160.582 144.772 161.254 144.927 161.851 145.236C162.448 145.545 162.923 146.004 163.275 146.612C163.627 147.22 163.803 147.961 163.803 148.836C163.803 149.711 163.627 150.452 163.275 151.06C162.923 151.668 162.448 152.132 161.851 152.452C161.254 152.772 160.582 152.932 159.835 152.932ZM159.947 151.924C160.566 151.924 161.115 151.796 161.595 151.54C162.075 151.273 162.454 150.911 162.731 150.452C163.008 149.983 163.147 149.444 163.147 148.836C163.147 148.228 163.008 147.695 162.731 147.236C162.454 146.777 162.075 146.42 161.595 146.164C161.115 145.897 160.566 145.764 159.947 145.764C159.339 145.764 158.79 145.897 158.299 146.164C157.819 146.42 157.44 146.777 157.163 147.236C156.896 147.695 156.763 148.228 156.763 148.836C156.763 149.444 156.896 149.983 157.163 150.452C157.44 150.911 157.819 151.273 158.299 151.54C158.79 151.796 159.339 151.924 159.947 151.924ZM167.412 153.252V141.38H168.548V153.252H167.412ZM175.133 153.332C174.322 153.332 173.592 153.151 172.941 152.788C172.301 152.415 171.794 151.908 171.421 151.268C171.048 150.617 170.861 149.876 170.861 149.044C170.861 148.201 171.048 147.46 171.421 146.82C171.794 146.18 172.301 145.679 172.941 145.316C173.581 144.953 174.312 144.772 175.133 144.772C175.965 144.772 176.701 144.953 177.341 145.316C177.992 145.679 178.498 146.18 178.861 146.82C179.234 147.46 179.421 148.201 179.421 149.044C179.421 149.876 179.234 150.617 178.861 151.268C178.498 151.908 177.992 152.415 177.341 152.788C176.69 153.151 175.954 153.332 175.133 153.332ZM175.133 152.324C175.741 152.324 176.28 152.191 176.749 151.924C177.218 151.647 177.586 151.263 177.853 150.772C178.13 150.271 178.269 149.695 178.269 149.044C178.269 148.383 178.13 147.807 177.853 147.316C177.586 146.825 177.218 146.447 176.749 146.18C176.28 145.903 175.746 145.764 175.149 145.764C174.552 145.764 174.018 145.903 173.549 146.18C173.08 146.447 172.706 146.825 172.429 147.316C172.152 147.807 172.013 148.383 172.013 149.044C172.013 149.695 172.152 150.271 172.429 150.772C172.706 151.263 173.08 151.647 173.549 151.924C174.018 152.191 174.546 152.324 175.133 152.324ZM186.076 153.332C185.34 153.332 184.679 153.167 184.092 152.836C183.506 152.495 183.042 152.004 182.7 151.364C182.359 150.724 182.188 149.951 182.188 149.044C182.188 148.127 182.359 147.353 182.7 146.724C183.052 146.084 183.522 145.599 184.108 145.268C184.695 144.937 185.351 144.772 186.076 144.772C186.876 144.772 187.591 144.953 188.22 145.316C188.86 145.668 189.362 146.164 189.724 146.804C190.087 147.444 190.268 148.191 190.268 149.044C190.268 149.887 190.087 150.633 189.724 151.284C189.362 151.924 188.86 152.425 188.22 152.788C187.591 153.151 186.876 153.332 186.076 153.332ZM181.74 153.252V141.38H182.876V147.332L182.716 149.028L182.828 150.724V153.252H181.74ZM185.996 152.324C186.594 152.324 187.127 152.191 187.596 151.924C188.066 151.647 188.439 151.263 188.716 150.772C188.994 150.271 189.132 149.695 189.132 149.044C189.132 148.383 188.994 147.807 188.716 147.316C188.439 146.825 188.066 146.447 187.596 146.18C187.127 145.903 186.594 145.764 185.996 145.764C185.399 145.764 184.86 145.903 184.38 146.18C183.911 146.447 183.538 146.825 183.26 147.316C182.994 147.807 182.86 148.383 182.86 149.044C182.86 149.695 182.994 150.271 183.26 150.772C183.538 151.263 183.911 151.647 184.38 151.924C184.86 152.191 185.399 152.324 185.996 152.324ZM197.801 153.252V151.396L197.753 151.092V147.988C197.753 147.273 197.55 146.724 197.145 146.34C196.75 145.956 196.158 145.764 195.369 145.764C194.825 145.764 194.308 145.855 193.817 146.036C193.326 146.217 192.91 146.457 192.569 146.756L192.057 145.908C192.484 145.545 192.996 145.268 193.593 145.076C194.19 144.873 194.82 144.772 195.481 144.772C196.569 144.772 197.406 145.044 197.993 145.588C198.59 146.121 198.889 146.937 198.889 148.036V153.252H197.801ZM194.905 153.332C194.276 153.332 193.726 153.231 193.257 153.028C192.798 152.815 192.446 152.527 192.201 152.164C191.956 151.791 191.833 151.364 191.833 150.884C191.833 150.447 191.934 150.052 192.137 149.7C192.35 149.337 192.692 149.049 193.161 148.836C193.641 148.612 194.281 148.5 195.081 148.5H197.977V149.348H195.113C194.302 149.348 193.737 149.492 193.417 149.78C193.108 150.068 192.953 150.425 192.953 150.852C192.953 151.332 193.14 151.716 193.513 152.004C193.886 152.292 194.409 152.436 195.081 152.436C195.721 152.436 196.27 152.292 196.729 152.004C197.198 151.705 197.54 151.279 197.753 150.724L198.009 151.508C197.796 152.063 197.422 152.505 196.889 152.836C196.366 153.167 195.705 153.332 194.905 153.332ZM201.975 153.252V141.38H203.111V153.252H201.975ZM210.459 153.252V141.38H211.595V153.252H210.459ZM218.324 153.332C217.449 153.332 216.681 153.151 216.02 152.788C215.359 152.415 214.841 151.908 214.468 151.268C214.095 150.617 213.908 149.876 213.908 149.044C213.908 148.212 214.084 147.476 214.436 146.836C214.799 146.196 215.289 145.695 215.908 145.332C216.537 144.959 217.241 144.772 218.02 144.772C218.809 144.772 219.508 144.953 220.116 145.316C220.735 145.668 221.22 146.169 221.572 146.82C221.924 147.46 222.1 148.201 222.1 149.044C222.1 149.097 222.095 149.156 222.084 149.22C222.084 149.273 222.084 149.332 222.084 149.396H214.772V148.548H221.476L221.028 148.884C221.028 148.276 220.895 147.737 220.628 147.268C220.372 146.788 220.02 146.415 219.572 146.148C219.124 145.881 218.607 145.748 218.02 145.748C217.444 145.748 216.927 145.881 216.468 146.148C216.009 146.415 215.652 146.788 215.396 147.268C215.14 147.748 215.012 148.297 215.012 148.916V149.092C215.012 149.732 215.151 150.297 215.428 150.788C215.716 151.268 216.111 151.647 216.612 151.924C217.124 152.191 217.705 152.324 218.356 152.324C218.868 152.324 219.343 152.233 219.78 152.052C220.228 151.871 220.612 151.593 220.932 151.22L221.572 151.956C221.199 152.404 220.729 152.745 220.164 152.98C219.609 153.215 218.996 153.332 218.324 153.332ZM226.416 153.252L222.688 144.852H223.872L227.296 152.644H226.736L230.208 144.852H231.328L227.584 153.252H226.416ZM236.261 153.332C235.387 153.332 234.619 153.151 233.957 152.788C233.296 152.415 232.779 151.908 232.405 151.268C232.032 150.617 231.845 149.876 231.845 149.044C231.845 148.212 232.021 147.476 232.373 146.836C232.736 146.196 233.227 145.695 233.845 145.332C234.475 144.959 235.179 144.772 235.957 144.772C236.747 144.772 237.445 144.953 238.053 145.316C238.672 145.668 239.157 146.169 239.509 146.82C239.861 147.46 240.037 148.201 240.037 149.044C240.037 149.097 240.032 149.156 240.021 149.22C240.021 149.273 240.021 149.332 240.021 149.396H232.709V148.548H239.413L238.965 148.884C238.965 148.276 238.832 147.737 238.565 147.268C238.309 146.788 237.957 146.415 237.509 146.148C237.061 145.881 236.544 145.748 235.957 145.748C235.381 145.748 234.864 145.881 234.405 146.148C233.947 146.415 233.589 146.788 233.333 147.268C233.077 147.748 232.949 148.297 232.949 148.916V149.092C232.949 149.732 233.088 150.297 233.365 150.788C233.653 151.268 234.048 151.647 234.549 151.924C235.061 152.191 235.643 152.324 236.293 152.324C236.805 152.324 237.28 152.233 237.717 152.052C238.165 151.871 238.549 151.593 238.869 151.22L239.509 151.956C239.136 152.404 238.667 152.745 238.101 152.98C237.547 153.215 236.933 153.332 236.261 153.332ZM242.35 153.252V141.38H243.486V153.252H242.35ZM256.098 153.252V151.396L256.05 151.092V147.988C256.05 147.273 255.847 146.724 255.442 146.34C255.047 145.956 254.455 145.764 253.666 145.764C253.122 145.764 252.605 145.855 252.114 146.036C251.623 146.217 251.207 146.457 250.866 146.756L250.354 145.908C250.781 145.545 251.293 145.268 251.89 145.076C252.487 144.873 253.117 144.772 253.778 144.772C254.866 144.772 255.703 145.044 256.29 145.588C256.887 146.121 257.186 146.937 257.186 148.036V153.252H256.098ZM253.202 153.332C252.573 153.332 252.023 153.231 251.554 153.028C251.095 152.815 250.743 152.527 250.498 152.164C250.253 151.791 250.13 151.364 250.13 150.884C250.13 150.447 250.231 150.052 250.434 149.7C250.647 149.337 250.989 149.049 251.458 148.836C251.938 148.612 252.578 148.5 253.378 148.5H256.274V149.348H253.41C252.599 149.348 252.034 149.492 251.714 149.78C251.405 150.068 251.25 150.425 251.25 150.852C251.25 151.332 251.437 151.716 251.81 152.004C252.183 152.292 252.706 152.436 253.378 152.436C254.018 152.436 254.567 152.292 255.026 152.004C255.495 151.705 255.837 151.279 256.05 150.724L256.306 151.508C256.093 152.063 255.719 152.505 255.186 152.836C254.663 153.167 254.002 153.332 253.202 153.332ZM264.56 144.772C265.242 144.772 265.84 144.905 266.352 145.172C266.874 145.428 267.28 145.823 267.568 146.356C267.866 146.889 268.016 147.561 268.016 148.372V153.252H266.88V148.484C266.88 147.599 266.656 146.932 266.208 146.484C265.77 146.025 265.152 145.796 264.352 145.796C263.754 145.796 263.232 145.919 262.784 146.164C262.346 146.399 262.005 146.745 261.76 147.204C261.525 147.652 261.408 148.196 261.408 148.836V153.252H260.272V144.852H261.36V147.156L261.184 146.724C261.45 146.116 261.877 145.641 262.464 145.3C263.05 144.948 263.749 144.772 264.56 144.772ZM274.428 153.332C273.628 153.332 272.908 153.151 272.268 152.788C271.639 152.425 271.143 151.924 270.78 151.284C270.417 150.633 270.236 149.887 270.236 149.044C270.236 148.191 270.417 147.444 270.78 146.804C271.143 146.164 271.639 145.668 272.268 145.316C272.908 144.953 273.628 144.772 274.428 144.772C275.164 144.772 275.82 144.937 276.396 145.268C276.983 145.599 277.447 146.084 277.788 146.724C278.14 147.353 278.316 148.127 278.316 149.044C278.316 149.951 278.145 150.724 277.804 151.364C277.463 152.004 276.999 152.495 276.412 152.836C275.836 153.167 275.175 153.332 274.428 153.332ZM274.508 152.324C275.105 152.324 275.639 152.191 276.108 151.924C276.588 151.647 276.961 151.263 277.228 150.772C277.505 150.271 277.644 149.695 277.644 149.044C277.644 148.383 277.505 147.807 277.228 147.316C276.961 146.825 276.588 146.447 276.108 146.18C275.639 145.903 275.105 145.764 274.508 145.764C273.921 145.764 273.393 145.903 272.924 146.18C272.455 146.447 272.081 146.825 271.804 147.316C271.527 147.807 271.388 148.383 271.388 149.044C271.388 149.695 271.527 150.271 271.804 150.772C272.081 151.263 272.455 151.647 272.924 151.924C273.393 152.191 273.921 152.324 274.508 152.324ZM277.676 153.252V150.724L277.788 149.028L277.628 147.332V141.38H278.764V153.252H277.676ZM290.403 144.772C291.086 144.772 291.683 144.905 292.195 145.172C292.718 145.428 293.123 145.823 293.411 146.356C293.71 146.889 293.859 147.561 293.859 148.372V153.252H292.723V148.484C292.723 147.599 292.499 146.932 292.051 146.484C291.614 146.025 290.995 145.796 290.195 145.796C289.598 145.796 289.075 145.919 288.627 146.164C288.19 146.399 287.849 146.745 287.603 147.204C287.369 147.652 287.251 148.196 287.251 148.836V153.252H286.115V141.38H287.251V147.156L287.027 146.724C287.294 146.116 287.721 145.641 288.307 145.3C288.894 144.948 289.593 144.772 290.403 144.772ZM302.192 153.252V151.396L302.144 151.092V147.988C302.144 147.273 301.941 146.724 301.536 146.34C301.141 145.956 300.549 145.764 299.76 145.764C299.216 145.764 298.698 145.855 298.208 146.036C297.717 146.217 297.301 146.457 296.96 146.756L296.448 145.908C296.874 145.545 297.386 145.268 297.984 145.076C298.581 144.873 299.21 144.772 299.872 144.772C300.96 144.772 301.797 145.044 302.384 145.588C302.981 146.121 303.28 146.937 303.28 148.036V153.252H302.192ZM299.296 153.332C298.666 153.332 298.117 153.231 297.648 153.028C297.189 152.815 296.837 152.527 296.592 152.164C296.346 151.791 296.224 151.364 296.224 150.884C296.224 150.447 296.325 150.052 296.528 149.7C296.741 149.337 297.082 149.049 297.552 148.836C298.032 148.612 298.672 148.5 299.472 148.5H302.368V149.348H299.504C298.693 149.348 298.128 149.492 297.808 149.78C297.498 150.068 297.344 150.425 297.344 150.852C297.344 151.332 297.53 151.716 297.904 152.004C298.277 152.292 298.8 152.436 299.472 152.436C300.112 152.436 300.661 152.292 301.12 152.004C301.589 151.705 301.93 151.279 302.144 150.724L302.4 151.508C302.186 152.063 301.813 152.505 301.28 152.836C300.757 153.167 300.096 153.332 299.296 153.332ZM308.369 153.252L304.641 144.852H305.825L309.249 152.644H308.689L312.161 144.852H313.281L309.537 153.252H308.369ZM318.215 153.332C317.34 153.332 316.572 153.151 315.911 152.788C315.249 152.415 314.732 151.908 314.359 151.268C313.985 150.617 313.799 149.876 313.799 149.044C313.799 148.212 313.975 147.476 314.327 146.836C314.689 146.196 315.18 145.695 315.799 145.332C316.428 144.959 317.132 144.772 317.911 144.772C318.7 144.772 319.399 144.953 320.007 145.316C320.625 145.668 321.111 146.169 321.463 146.82C321.815 147.46 321.991 148.201 321.991 149.044C321.991 149.097 321.985 149.156 321.975 149.22C321.975 149.273 321.975 149.332 321.975 149.396H314.663V148.548H321.367L320.919 148.884C320.919 148.276 320.785 147.737 320.519 147.268C320.263 146.788 319.911 146.415 319.463 146.148C319.015 145.881 318.497 145.748 317.911 145.748C317.335 145.748 316.817 145.881 316.359 146.148C315.9 146.415 315.543 146.788 315.287 147.268C315.031 147.748 314.903 148.297 314.903 148.916V149.092C314.903 149.732 315.041 150.297 315.319 150.788C315.607 151.268 316.001 151.647 316.503 151.924C317.015 152.191 317.596 152.324 318.247 152.324C318.759 152.324 319.233 152.233 319.671 152.052C320.119 151.871 320.503 151.593 320.823 151.22L321.463 151.956C321.089 152.404 320.62 152.745 320.055 152.98C319.5 153.215 318.887 153.332 318.215 153.332ZM16.7137 173.252V162.532L17.2257 163.076H14.0737V162.052H17.8657V173.252H16.7137ZM25.0069 173.348C24.1429 173.348 23.3749 173.124 22.7029 172.676C22.0309 172.217 21.5029 171.567 21.1189 170.724C20.7349 169.871 20.5429 168.847 20.5429 167.652C20.5429 166.457 20.7349 165.439 21.1189 164.596C21.5029 163.743 22.0309 163.092 22.7029 162.644C23.3749 162.185 24.1429 161.956 25.0069 161.956C25.8709 161.956 26.6389 162.185 27.3109 162.644C27.9829 163.092 28.5109 163.743 28.8949 164.596C29.2896 165.439 29.4869 166.457 29.4869 167.652C29.4869 168.847 29.2896 169.871 28.8949 170.724C28.5109 171.567 27.9829 172.217 27.3109 172.676C26.6389 173.124 25.8709 173.348 25.0069 173.348ZM25.0069 172.292C25.6683 172.292 26.2443 172.116 26.7349 171.764C27.2256 171.401 27.6096 170.879 27.8869 170.196C28.1643 169.503 28.3029 168.655 28.3029 167.652C28.3029 166.649 28.1643 165.807 27.8869 165.124C27.6096 164.431 27.2256 163.908 26.7349 163.556C26.2443 163.193 25.6683 163.012 25.0069 163.012C24.3669 163.012 23.7963 163.193 23.2949 163.556C22.7936 163.908 22.4043 164.431 22.1269 165.124C21.8496 165.807 21.7109 166.649 21.7109 167.652C21.7109 168.655 21.8496 169.503 22.1269 170.196C22.4043 170.879 22.7936 171.401 23.2949 171.764C23.7963 172.116 24.3669 172.292 25.0069 172.292ZM35.6007 173.348C34.7367 173.348 33.9687 173.124 33.2967 172.676C32.6247 172.217 32.0967 171.567 31.7127 170.724C31.3287 169.871 31.1367 168.847 31.1367 167.652C31.1367 166.457 31.3287 165.439 31.7127 164.596C32.0967 163.743 32.6247 163.092 33.2967 162.644C33.9687 162.185 34.7367 161.956 35.6007 161.956C36.4647 161.956 37.2327 162.185 37.9047 162.644C38.5767 163.092 39.1047 163.743 39.4887 164.596C39.8834 165.439 40.0807 166.457 40.0807 167.652C40.0807 168.847 39.8834 169.871 39.4887 170.724C39.1047 171.567 38.5767 172.217 37.9047 172.676C37.2327 173.124 36.4647 173.348 35.6007 173.348ZM35.6007 172.292C36.262 172.292 36.838 172.116 37.3287 171.764C37.8194 171.401 38.2034 170.879 38.4807 170.196C38.758 169.503 38.8967 168.655 38.8967 167.652C38.8967 166.649 38.758 165.807 38.4807 165.124C38.2034 164.431 37.8194 163.908 37.3287 163.556C36.838 163.193 36.262 163.012 35.6007 163.012C34.9607 163.012 34.39 163.193 33.8887 163.556C33.3874 163.908 32.998 164.431 32.7207 165.124C32.4434 165.807 32.3047 166.649 32.3047 167.652C32.3047 168.655 32.4434 169.503 32.7207 170.196C32.998 170.879 33.3874 171.401 33.8887 171.764C34.39 172.116 34.9607 172.292 35.6007 172.292ZM45.1194 171.044V164.26H46.1274V171.044H45.1194ZM42.1434 168.132V167.188H49.1034V168.132H42.1434ZM60.3341 173.332C59.5981 173.332 58.9367 173.167 58.3501 172.836C57.7634 172.495 57.2994 172.004 56.9581 171.364C56.6167 170.724 56.4461 169.951 56.4461 169.044C56.4461 168.127 56.6167 167.353 56.9581 166.724C57.3101 166.084 57.7794 165.599 58.3661 165.268C58.9527 164.937 59.6087 164.772 60.3341 164.772C61.1341 164.772 61.8487 164.953 62.4781 165.316C63.1181 165.668 63.6194 166.164 63.9821 166.804C64.3447 167.444 64.5261 168.191 64.5261 169.044C64.5261 169.887 64.3447 170.633 63.9821 171.284C63.6194 171.924 63.1181 172.425 62.4781 172.788C61.8487 173.151 61.1341 173.332 60.3341 173.332ZM55.9981 173.252V161.38H57.1341V167.332L56.9741 169.028L57.0861 170.724V173.252H55.9981ZM60.2541 172.324C60.8514 172.324 61.3847 172.191 61.8541 171.924C62.3234 171.647 62.6967 171.263 62.9741 170.772C63.2514 170.271 63.3901 169.695 63.3901 169.044C63.3901 168.383 63.2514 167.807 62.9741 167.316C62.6967 166.825 62.3234 166.447 61.8541 166.18C61.3847 165.903 60.8514 165.764 60.2541 165.764C59.6567 165.764 59.1181 165.903 58.6381 166.18C58.1687 166.447 57.7954 166.825 57.5181 167.316C57.2514 167.807 57.1181 168.383 57.1181 169.044C57.1181 169.695 57.2514 170.271 57.5181 170.772C57.7954 171.263 58.1687 171.647 58.6381 171.924C59.1181 172.191 59.6567 172.324 60.2541 172.324ZM66.8418 173.252V164.852H67.9298V167.14L67.8178 166.74C68.0525 166.1 68.4471 165.615 69.0018 165.284C69.5565 164.943 70.2445 164.772 71.0658 164.772V165.876C71.0231 165.876 70.9805 165.876 70.9378 165.876C70.8951 165.865 70.8525 165.86 70.8098 165.86C69.9245 165.86 69.2311 166.132 68.7298 166.676C68.2285 167.209 67.9778 167.972 67.9778 168.964V173.252H66.8418ZM77.7777 173.252V171.396L77.7297 171.092V167.988C77.7297 167.273 77.527 166.724 77.1217 166.34C76.727 165.956 76.135 165.764 75.3457 165.764C74.8017 165.764 74.2844 165.855 73.7937 166.036C73.303 166.217 72.887 166.457 72.5457 166.756L72.0337 165.908C72.4604 165.545 72.9724 165.268 73.5697 165.076C74.167 164.873 74.7964 164.772 75.4577 164.772C76.5457 164.772 77.383 165.044 77.9697 165.588C78.567 166.121 78.8657 166.937 78.8657 168.036V173.252H77.7777ZM74.8817 173.332C74.2524 173.332 73.703 173.231 73.2337 173.028C72.775 172.815 72.423 172.527 72.1777 172.164C71.9324 171.791 71.8097 171.364 71.8097 170.884C71.8097 170.447 71.911 170.052 72.1137 169.7C72.327 169.337 72.6684 169.049 73.1377 168.836C73.6177 168.612 74.2577 168.5 75.0577 168.5H77.9537V169.348H75.0897C74.279 169.348 73.7137 169.492 73.3937 169.78C73.0844 170.068 72.9297 170.425 72.9297 170.852C72.9297 171.332 73.1164 171.716 73.4897 172.004C73.863 172.292 74.3857 172.436 75.0577 172.436C75.6977 172.436 76.247 172.292 76.7057 172.004C77.175 171.705 77.5164 171.279 77.7297 170.724L77.9857 171.508C77.7724 172.063 77.399 172.505 76.8657 172.836C76.343 173.167 75.6817 173.332 74.8817 173.332ZM86.2392 164.772C86.9219 164.772 87.5192 164.905 88.0312 165.172C88.5539 165.428 88.9592 165.823 89.2472 166.356C89.5459 166.889 89.6952 167.561 89.6952 168.372V173.252H88.5592V168.484C88.5592 167.599 88.3352 166.932 87.8872 166.484C87.4499 166.025 86.8312 165.796 86.0312 165.796C85.4339 165.796 84.9112 165.919 84.4632 166.164C84.0259 166.399 83.6845 166.745 83.4392 167.204C83.2045 167.652 83.0872 168.196 83.0872 168.836V173.252H81.9512V164.852H83.0392V167.156L82.8632 166.724C83.1299 166.116 83.5565 165.641 84.1432 165.3C84.7299 164.948 85.4285 164.772 86.2392 164.772ZM96.1077 173.332C95.3077 173.332 94.5877 173.151 93.9477 172.788C93.3184 172.425 92.8224 171.924 92.4597 171.284C92.097 170.633 91.9157 169.887 91.9157 169.044C91.9157 168.191 92.097 167.444 92.4597 166.804C92.8224 166.164 93.3184 165.668 93.9477 165.316C94.5877 164.953 95.3077 164.772 96.1077 164.772C96.8437 164.772 97.4997 164.937 98.0757 165.268C98.6624 165.599 99.1264 166.084 99.4677 166.724C99.8197 167.353 99.9957 168.127 99.9957 169.044C99.9957 169.951 99.825 170.724 99.4837 171.364C99.1424 172.004 98.6784 172.495 98.0917 172.836C97.5157 173.167 96.8544 173.332 96.1077 173.332ZM96.1877 172.324C96.785 172.324 97.3184 172.191 97.7877 171.924C98.2677 171.647 98.641 171.263 98.9077 170.772C99.185 170.271 99.3237 169.695 99.3237 169.044C99.3237 168.383 99.185 167.807 98.9077 167.316C98.641 166.825 98.2677 166.447 97.7877 166.18C97.3184 165.903 96.785 165.764 96.1877 165.764C95.601 165.764 95.073 165.903 94.6037 166.18C94.1344 166.447 93.761 166.825 93.4837 167.316C93.2064 167.807 93.0677 168.383 93.0677 169.044C93.0677 169.695 93.2064 170.271 93.4837 170.772C93.761 171.263 94.1344 171.647 94.6037 171.924C95.073 172.191 95.601 172.324 96.1877 172.324ZM99.3557 173.252V170.724L99.4677 169.028L99.3077 167.332V161.38H100.444V173.252H99.3557ZM112.131 173.332C111.406 173.332 110.75 173.167 110.163 172.836C109.576 172.495 109.107 172.009 108.755 171.38C108.414 170.74 108.243 169.961 108.243 169.044C108.243 168.127 108.414 167.353 108.755 166.724C109.096 166.084 109.56 165.599 110.147 165.268C110.734 164.937 111.395 164.772 112.131 164.772C112.931 164.772 113.646 164.953 114.275 165.316C114.915 165.668 115.416 166.169 115.779 166.82C116.142 167.46 116.323 168.201 116.323 169.044C116.323 169.897 116.142 170.644 115.779 171.284C115.416 171.924 114.915 172.425 114.275 172.788C113.646 173.151 112.931 173.332 112.131 173.332ZM107.795 176.356V164.852H108.883V167.38L108.771 169.06L108.931 170.756V176.356H107.795ZM112.051 172.324C112.648 172.324 113.182 172.191 113.651 171.924C114.12 171.647 114.494 171.263 114.771 170.772C115.048 170.271 115.187 169.695 115.187 169.044C115.187 168.393 115.048 167.823 114.771 167.332C114.494 166.841 114.12 166.457 113.651 166.18C113.182 165.903 112.648 165.764 112.051 165.764C111.454 165.764 110.915 165.903 110.435 166.18C109.966 166.457 109.592 166.841 109.315 167.332C109.048 167.823 108.915 168.393 108.915 169.044C108.915 169.695 109.048 170.271 109.315 170.772C109.592 171.263 109.966 171.647 110.435 171.924C110.915 172.191 111.454 172.324 112.051 172.324ZM123.856 173.252V171.396L123.808 171.092V167.988C123.808 167.273 123.605 166.724 123.2 166.34C122.805 165.956 122.213 165.764 121.424 165.764C120.88 165.764 120.362 165.855 119.872 166.036C119.381 166.217 118.965 166.457 118.624 166.756L118.112 165.908C118.538 165.545 119.05 165.268 119.648 165.076C120.245 164.873 120.874 164.772 121.536 164.772C122.624 164.772 123.461 165.044 124.048 165.588C124.645 166.121 124.944 166.937 124.944 168.036V173.252H123.856ZM120.96 173.332C120.33 173.332 119.781 173.231 119.312 173.028C118.853 172.815 118.501 172.527 118.256 172.164C118.01 171.791 117.888 171.364 117.888 170.884C117.888 170.447 117.989 170.052 118.192 169.7C118.405 169.337 118.746 169.049 119.216 168.836C119.696 168.612 120.336 168.5 121.136 168.5H124.032V169.348H121.168C120.357 169.348 119.792 169.492 119.472 169.78C119.162 170.068 119.008 170.425 119.008 170.852C119.008 171.332 119.194 171.716 119.568 172.004C119.941 172.292 120.464 172.436 121.136 172.436C121.776 172.436 122.325 172.292 122.784 172.004C123.253 171.705 123.594 171.279 123.808 170.724L124.064 171.508C123.85 172.063 123.477 172.505 122.944 172.836C122.421 173.167 121.76 173.332 120.96 173.332ZM128.029 173.252V164.852H129.117V167.14L129.005 166.74C129.24 166.1 129.635 165.615 130.189 165.284C130.744 164.943 131.432 164.772 132.253 164.772V165.876C132.211 165.876 132.168 165.876 132.125 165.876C132.083 165.865 132.04 165.86 131.997 165.86C131.112 165.86 130.419 166.132 129.917 166.676C129.416 167.209 129.165 167.972 129.165 168.964V173.252H128.029ZM137.342 173.332C136.552 173.332 135.944 173.119 135.518 172.692C135.091 172.265 134.878 171.663 134.878 170.884V162.996H136.014V170.82C136.014 171.311 136.136 171.689 136.382 171.956C136.638 172.223 137 172.356 137.47 172.356C137.971 172.356 138.387 172.212 138.718 171.924L139.118 172.74C138.894 172.943 138.622 173.092 138.302 173.188C137.992 173.284 137.672 173.332 137.342 173.332ZM133.374 165.796V164.852H138.574V165.796H133.374ZM145.474 164.772C146.156 164.772 146.754 164.905 147.266 165.172C147.788 165.428 148.194 165.823 148.482 166.356C148.78 166.889 148.93 167.561 148.93 168.372V173.252H147.794V168.484C147.794 167.599 147.57 166.932 147.122 166.484C146.684 166.025 146.066 165.796 145.266 165.796C144.668 165.796 144.146 165.919 143.698 166.164C143.26 166.399 142.919 166.745 142.674 167.204C142.439 167.652 142.322 168.196 142.322 168.836V173.252H141.186V164.852H142.274V167.156L142.098 166.724C142.364 166.116 142.791 165.641 143.378 165.3C143.964 164.948 144.663 164.772 145.474 164.772ZM155.566 173.332C154.691 173.332 153.923 173.151 153.262 172.788C152.601 172.415 152.083 171.908 151.71 171.268C151.337 170.617 151.15 169.876 151.15 169.044C151.15 168.212 151.326 167.476 151.678 166.836C152.041 166.196 152.531 165.695 153.15 165.332C153.779 164.959 154.483 164.772 155.262 164.772C156.051 164.772 156.75 164.953 157.358 165.316C157.977 165.668 158.462 166.169 158.814 166.82C159.166 167.46 159.342 168.201 159.342 169.044C159.342 169.097 159.337 169.156 159.326 169.22C159.326 169.273 159.326 169.332 159.326 169.396H152.014V168.548H158.718L158.27 168.884C158.27 168.276 158.137 167.737 157.87 167.268C157.614 166.788 157.262 166.415 156.814 166.148C156.366 165.881 155.849 165.748 155.262 165.748C154.686 165.748 154.169 165.881 153.71 166.148C153.251 166.415 152.894 166.788 152.638 167.268C152.382 167.748 152.254 168.297 152.254 168.916V169.092C152.254 169.732 152.393 170.297 152.67 170.788C152.958 171.268 153.353 171.647 153.854 171.924C154.366 172.191 154.947 172.324 155.598 172.324C156.11 172.324 156.585 172.233 157.022 172.052C157.47 171.871 157.854 171.593 158.174 171.22L158.814 171.956C158.441 172.404 157.971 172.745 157.406 172.98C156.851 173.215 156.238 173.332 155.566 173.332ZM161.654 173.252V164.852H162.742V167.14L162.63 166.74C162.865 166.1 163.26 165.615 163.814 165.284C164.369 164.943 165.057 164.772 165.878 164.772V165.876C165.836 165.876 165.793 165.876 165.75 165.876C165.708 165.865 165.665 165.86 165.622 165.86C164.737 165.86 164.044 166.132 163.542 166.676C163.041 167.209 162.79 167.972 162.79 168.964V173.252H161.654ZM170.301 173.332C169.608 173.332 168.952 173.236 168.333 173.044C167.714 172.841 167.229 172.591 166.877 172.292L167.389 171.396C167.73 171.652 168.168 171.876 168.701 172.068C169.234 172.249 169.794 172.34 170.381 172.34C171.181 172.34 171.757 172.217 172.109 171.972C172.461 171.716 172.637 171.38 172.637 170.964C172.637 170.655 172.536 170.415 172.333 170.244C172.141 170.063 171.885 169.929 171.565 169.844C171.245 169.748 170.888 169.668 170.493 169.604C170.098 169.54 169.704 169.465 169.309 169.38C168.925 169.295 168.573 169.172 168.253 169.012C167.933 168.841 167.672 168.612 167.469 168.324C167.277 168.036 167.181 167.652 167.181 167.172C167.181 166.713 167.309 166.303 167.565 165.94C167.821 165.577 168.194 165.295 168.685 165.092C169.186 164.879 169.794 164.772 170.509 164.772C171.053 164.772 171.597 164.847 172.141 164.996C172.685 165.135 173.133 165.321 173.485 165.556L172.989 166.468C172.616 166.212 172.216 166.031 171.789 165.924C171.362 165.807 170.936 165.748 170.509 165.748C169.752 165.748 169.192 165.881 168.829 166.148C168.477 166.404 168.301 166.735 168.301 167.14C168.301 167.46 168.397 167.711 168.589 167.892C168.792 168.073 169.053 168.217 169.373 168.324C169.704 168.42 170.061 168.5 170.445 168.564C170.84 168.628 171.229 168.708 171.613 168.804C172.008 168.889 172.365 169.012 172.685 169.172C173.016 169.321 173.277 169.54 173.469 169.828C173.672 170.105 173.773 170.473 173.773 170.932C173.773 171.423 173.634 171.849 173.357 172.212C173.09 172.564 172.696 172.841 172.173 173.044C171.661 173.236 171.037 173.332 170.301 173.332ZM185.309 173.252V171.396L185.261 171.092V167.988C185.261 167.273 185.058 166.724 184.653 166.34C184.258 165.956 183.666 165.764 182.877 165.764C182.333 165.764 181.816 165.855 181.325 166.036C180.834 166.217 180.418 166.457 180.077 166.756L179.565 165.908C179.992 165.545 180.504 165.268 181.101 165.076C181.698 164.873 182.328 164.772 182.989 164.772C184.077 164.772 184.914 165.044 185.501 165.588C186.098 166.121 186.397 166.937 186.397 168.036V173.252H185.309ZM182.413 173.332C181.784 173.332 181.234 173.231 180.765 173.028C180.306 172.815 179.954 172.527 179.709 172.164C179.464 171.791 179.341 171.364 179.341 170.884C179.341 170.447 179.442 170.052 179.645 169.7C179.858 169.337 180.2 169.049 180.669 168.836C181.149 168.612 181.789 168.5 182.589 168.5H185.485V169.348H182.621C181.81 169.348 181.245 169.492 180.925 169.78C180.616 170.068 180.461 170.425 180.461 170.852C180.461 171.332 180.648 171.716 181.021 172.004C181.394 172.292 181.917 172.436 182.589 172.436C183.229 172.436 183.778 172.292 184.237 172.004C184.706 171.705 185.048 171.279 185.261 170.724L185.517 171.508C185.304 172.063 184.93 172.505 184.397 172.836C183.874 173.167 183.213 173.332 182.413 173.332ZM189.482 173.252V164.852H190.57V167.14L190.458 166.74C190.693 166.1 191.088 165.615 191.642 165.284C192.197 164.943 192.885 164.772 193.706 164.772V165.876C193.664 165.876 193.621 165.876 193.578 165.876C193.536 165.865 193.493 165.86 193.45 165.86C192.565 165.86 191.872 166.132 191.37 166.676C190.869 167.209 190.618 167.972 190.618 168.964V173.252H189.482ZM199.125 173.332C198.315 173.332 197.584 173.151 196.933 172.788C196.293 172.415 195.787 171.908 195.413 171.268C195.04 170.617 194.853 169.876 194.853 169.044C194.853 168.201 195.04 167.46 195.413 166.82C195.787 166.18 196.293 165.679 196.933 165.316C197.573 164.953 198.304 164.772 199.125 164.772C199.957 164.772 200.693 164.953 201.333 165.316C201.984 165.679 202.491 166.18 202.853 166.82C203.227 167.46 203.413 168.201 203.413 169.044C203.413 169.876 203.227 170.617 202.853 171.268C202.491 171.908 201.984 172.415 201.333 172.788C200.683 173.151 199.947 173.332 199.125 173.332ZM199.125 172.324C199.733 172.324 200.272 172.191 200.741 171.924C201.211 171.647 201.579 171.263 201.845 170.772C202.123 170.271 202.261 169.695 202.261 169.044C202.261 168.383 202.123 167.807 201.845 167.316C201.579 166.825 201.211 166.447 200.741 166.18C200.272 165.903 199.739 165.764 199.141 165.764C198.544 165.764 198.011 165.903 197.541 166.18C197.072 166.447 196.699 166.825 196.421 167.316C196.144 167.807 196.005 168.383 196.005 169.044C196.005 169.695 196.144 170.271 196.421 170.772C196.699 171.263 197.072 171.647 197.541 171.924C198.011 172.191 198.539 172.324 199.125 172.324ZM209.204 173.332C208.49 173.332 207.866 173.199 207.332 172.932C206.799 172.665 206.383 172.265 206.084 171.732C205.796 171.199 205.652 170.532 205.652 169.732V164.852H206.788V169.604C206.788 170.5 207.007 171.177 207.444 171.636C207.892 172.084 208.516 172.308 209.316 172.308C209.903 172.308 210.41 172.191 210.836 171.956C211.274 171.711 211.604 171.359 211.828 170.9C212.063 170.441 212.18 169.892 212.18 169.252V164.852H213.316V173.252H212.228V170.948L212.404 171.364C212.138 171.983 211.722 172.468 211.156 172.82C210.602 173.161 209.951 173.332 209.204 173.332ZM220.77 164.772C221.453 164.772 222.05 164.905 222.562 165.172C223.085 165.428 223.49 165.823 223.778 166.356C224.077 166.889 224.226 167.561 224.226 168.372V173.252H223.09V168.484C223.09 167.599 222.866 166.932 222.418 166.484C221.981 166.025 221.362 165.796 220.562 165.796C219.965 165.796 219.442 165.919 218.994 166.164C218.557 166.399 218.216 166.745 217.97 167.204C217.736 167.652 217.618 168.196 217.618 168.836V173.252H216.482V164.852H217.57V167.156L217.394 166.724C217.661 166.116 218.088 165.641 218.674 165.3C219.261 164.948 219.96 164.772 220.77 164.772ZM230.639 173.332C229.839 173.332 229.119 173.151 228.479 172.788C227.85 172.425 227.354 171.924 226.991 171.284C226.628 170.633 226.447 169.887 226.447 169.044C226.447 168.191 226.628 167.444 226.991 166.804C227.354 166.164 227.85 165.668 228.479 165.316C229.119 164.953 229.839 164.772 230.639 164.772C231.375 164.772 232.031 164.937 232.607 165.268C233.194 165.599 233.658 166.084 233.999 166.724C234.351 167.353 234.527 168.127 234.527 169.044C234.527 169.951 234.356 170.724 234.015 171.364C233.674 172.004 233.21 172.495 232.623 172.836C232.047 173.167 231.386 173.332 230.639 173.332ZM230.719 172.324C231.316 172.324 231.85 172.191 232.319 171.924C232.799 171.647 233.172 171.263 233.439 170.772C233.716 170.271 233.855 169.695 233.855 169.044C233.855 168.383 233.716 167.807 233.439 167.316C233.172 166.825 232.799 166.447 232.319 166.18C231.85 165.903 231.316 165.764 230.719 165.764C230.132 165.764 229.604 165.903 229.135 166.18C228.666 166.447 228.292 166.825 228.015 167.316C227.738 167.807 227.599 168.383 227.599 169.044C227.599 169.695 227.738 170.271 228.015 170.772C228.292 171.263 228.666 171.647 229.135 171.924C229.604 172.191 230.132 172.324 230.719 172.324ZM233.887 173.252V170.724L233.999 169.028L233.839 167.332V161.38H234.975V173.252H233.887ZM244.982 173.332C244.193 173.332 243.585 173.119 243.158 172.692C242.732 172.265 242.518 171.663 242.518 170.884V162.996H243.654V170.82C243.654 171.311 243.777 171.689 244.022 171.956C244.278 172.223 244.641 172.356 245.11 172.356C245.612 172.356 246.028 172.212 246.358 171.924L246.758 172.74C246.534 172.943 246.262 173.092 245.942 173.188C245.633 173.284 245.313 173.332 244.982 173.332ZM241.014 165.796V164.852H246.214V165.796H241.014ZM253.114 164.772C253.797 164.772 254.394 164.905 254.906 165.172C255.429 165.428 255.834 165.823 256.122 166.356C256.421 166.889 256.57 167.561 256.57 168.372V173.252H255.434V168.484C255.434 167.599 255.21 166.932 254.762 166.484C254.325 166.025 253.706 165.796 252.906 165.796C252.309 165.796 251.786 165.919 251.338 166.164C250.901 166.399 250.56 166.745 250.314 167.204C250.08 167.652 249.962 168.196 249.962 168.836V173.252H248.826V161.38H249.962V167.156L249.738 166.724C250.005 166.116 250.432 165.641 251.018 165.3C251.605 164.948 252.304 164.772 253.114 164.772ZM263.207 173.332C262.332 173.332 261.564 173.151 260.903 172.788C260.241 172.415 259.724 171.908 259.351 171.268C258.977 170.617 258.791 169.876 258.791 169.044C258.791 168.212 258.967 167.476 259.319 166.836C259.681 166.196 260.172 165.695 260.791 165.332C261.42 164.959 262.124 164.772 262.903 164.772C263.692 164.772 264.391 164.953 264.999 165.316C265.617 165.668 266.103 166.169 266.455 166.82C266.807 167.46 266.983 168.201 266.983 169.044C266.983 169.097 266.977 169.156 266.967 169.22C266.967 169.273 266.967 169.332 266.967 169.396H259.655V168.548H266.359L265.911 168.884C265.911 168.276 265.777 167.737 265.511 167.268C265.255 166.788 264.903 166.415 264.455 166.148C264.007 165.881 263.489 165.748 262.903 165.748C262.327 165.748 261.809 165.881 261.351 166.148C260.892 166.415 260.535 166.788 260.279 167.268C260.023 167.748 259.895 168.297 259.895 168.916V169.092C259.895 169.732 260.033 170.297 260.311 170.788C260.599 171.268 260.993 171.647 261.495 171.924C262.007 172.191 262.588 172.324 263.239 172.324C263.751 172.324 264.225 172.233 264.663 172.052C265.111 171.871 265.495 171.593 265.815 171.22L266.455 171.956C266.081 172.404 265.612 172.745 265.047 172.98C264.492 173.215 263.879 173.332 263.207 173.332ZM277.066 176.436C276.298 176.436 275.562 176.324 274.858 176.1C274.154 175.876 273.584 175.556 273.146 175.14L273.722 174.276C274.117 174.628 274.602 174.905 275.178 175.108C275.765 175.321 276.384 175.428 277.034 175.428C278.101 175.428 278.885 175.177 279.386 174.676C279.888 174.185 280.138 173.417 280.138 172.372V170.276L280.298 168.836L280.186 167.396V164.852H281.274V172.228C281.274 173.679 280.917 174.74 280.202 175.412C279.498 176.095 278.453 176.436 277.066 176.436ZM276.858 172.932C276.058 172.932 275.338 172.761 274.698 172.42C274.058 172.068 273.552 171.583 273.178 170.964C272.816 170.345 272.634 169.636 272.634 168.836C272.634 168.036 272.816 167.332 273.178 166.724C273.552 166.105 274.058 165.625 274.698 165.284C275.338 164.943 276.058 164.772 276.858 164.772C277.605 164.772 278.277 164.927 278.874 165.236C279.472 165.545 279.946 166.004 280.298 166.612C280.65 167.22 280.826 167.961 280.826 168.836C280.826 169.711 280.65 170.452 280.298 171.06C279.946 171.668 279.472 172.132 278.874 172.452C278.277 172.772 277.605 172.932 276.858 172.932ZM276.97 171.924C277.589 171.924 278.138 171.796 278.618 171.54C279.098 171.273 279.477 170.911 279.754 170.452C280.032 169.983 280.17 169.444 280.17 168.836C280.17 168.228 280.032 167.695 279.754 167.236C279.477 166.777 279.098 166.42 278.618 166.164C278.138 165.897 277.589 165.764 276.97 165.764C276.362 165.764 275.813 165.897 275.322 166.164C274.842 166.42 274.464 166.777 274.186 167.236C273.92 167.695 273.786 168.228 273.786 168.836C273.786 169.444 273.92 169.983 274.186 170.452C274.464 170.911 274.842 171.273 275.322 171.54C275.813 171.796 276.362 171.924 276.97 171.924ZM284.436 173.252V161.38H285.572V173.252H284.436ZM292.156 173.332C291.346 173.332 290.615 173.151 289.964 172.788C289.324 172.415 288.818 171.908 288.444 171.268C288.071 170.617 287.884 169.876 287.884 169.044C287.884 168.201 288.071 167.46 288.444 166.82C288.818 166.18 289.324 165.679 289.964 165.316C290.604 164.953 291.335 164.772 292.156 164.772C292.988 164.772 293.724 164.953 294.364 165.316C295.015 165.679 295.522 166.18 295.884 166.82C296.258 167.46 296.444 168.201 296.444 169.044C296.444 169.876 296.258 170.617 295.884 171.268C295.522 171.908 295.015 172.415 294.364 172.788C293.714 173.151 292.978 173.332 292.156 173.332ZM292.156 172.324C292.764 172.324 293.303 172.191 293.772 171.924C294.242 171.647 294.61 171.263 294.876 170.772C295.154 170.271 295.292 169.695 295.292 169.044C295.292 168.383 295.154 167.807 294.876 167.316C294.61 166.825 294.242 166.447 293.772 166.18C293.303 165.903 292.77 165.764 292.172 165.764C291.575 165.764 291.042 165.903 290.572 166.18C290.103 166.447 289.73 166.825 289.452 167.316C289.175 167.807 289.036 168.383 289.036 169.044C289.036 169.695 289.175 170.271 289.452 170.772C289.73 171.263 290.103 171.647 290.572 171.924C291.042 172.191 291.57 172.324 292.156 172.324ZM303.1 173.332C302.364 173.332 301.702 173.167 301.116 172.836C300.529 172.495 300.065 172.004 299.724 171.364C299.382 170.724 299.212 169.951 299.212 169.044C299.212 168.127 299.382 167.353 299.724 166.724C300.076 166.084 300.545 165.599 301.132 165.268C301.718 164.937 302.374 164.772 303.1 164.772C303.9 164.772 304.614 164.953 305.244 165.316C305.884 165.668 306.385 166.164 306.748 166.804C307.11 167.444 307.292 168.191 307.292 169.044C307.292 169.887 307.11 170.633 306.748 171.284C306.385 171.924 305.884 172.425 305.244 172.788C304.614 173.151 303.9 173.332 303.1 173.332ZM298.764 173.252V161.38H299.9V167.332L299.74 169.028L299.852 170.724V173.252H298.764ZM303.02 172.324C303.617 172.324 304.15 172.191 304.62 171.924C305.089 171.647 305.462 171.263 305.74 170.772C306.017 170.271 306.156 169.695 306.156 169.044C306.156 168.383 306.017 167.807 305.74 167.316C305.462 166.825 305.089 166.447 304.62 166.18C304.15 165.903 303.617 165.764 303.02 165.764C302.422 165.764 301.884 165.903 301.404 166.18C300.934 166.447 300.561 166.825 300.284 167.316C300.017 167.807 299.884 168.383 299.884 169.044C299.884 169.695 300.017 170.271 300.284 170.772C300.561 171.263 300.934 171.647 301.404 171.924C301.884 172.191 302.422 172.324 303.02 172.324ZM313.175 173.332C312.301 173.332 311.533 173.151 310.871 172.788C310.21 172.415 309.693 171.908 309.319 171.268C308.946 170.617 308.759 169.876 308.759 169.044C308.759 168.212 308.935 167.476 309.287 166.836C309.65 166.196 310.141 165.695 310.759 165.332C311.389 164.959 312.093 164.772 312.871 164.772C313.661 164.772 314.359 164.953 314.967 165.316C315.586 165.668 316.071 166.169 316.423 166.82C316.775 167.46 316.951 168.201 316.951 169.044C316.951 169.097 316.946 169.156 316.935 169.22C316.935 169.273 316.935 169.332 316.935 169.396H309.623V168.548H316.327L315.879 168.884C315.879 168.276 315.746 167.737 315.479 167.268C315.223 166.788 314.871 166.415 314.423 166.148C313.975 165.881 313.458 165.748 312.871 165.748C312.295 165.748 311.778 165.881 311.319 166.148C310.861 166.415 310.503 166.788 310.247 167.268C309.991 167.748 309.863 168.297 309.863 168.916V169.092C309.863 169.732 310.002 170.297 310.279 170.788C310.567 171.268 310.962 171.647 311.463 171.924C311.975 172.191 312.557 172.324 313.207 172.324C313.719 172.324 314.194 172.233 314.631 172.052C315.079 171.871 315.463 171.593 315.783 171.22L316.423 171.956C316.05 172.404 315.581 172.745 315.015 172.98C314.461 173.215 313.847 173.332 313.175 173.332ZM319.376 173.332C319.141 173.332 318.938 173.247 318.768 173.076C318.608 172.905 318.528 172.697 318.528 172.452C318.528 172.196 318.608 171.988 318.768 171.828C318.938 171.668 319.141 171.588 319.376 171.588C319.61 171.588 319.808 171.668 319.968 171.828C320.138 171.988 320.224 172.196 320.224 172.452C320.224 172.697 320.138 172.905 319.968 173.076C319.808 173.247 319.61 173.332 319.376 173.332Z" fill="#4F5665"/>
<path d="M204.268 240.662V238.623H202.045V235.452L201.971 235.478L199.883 236.206L199.842 236.22V238.623H196.547V237.285C196.547 236.661 196.669 236.185 196.91 235.867C197.149 235.552 197.492 235.393 197.928 235.393C198.242 235.393 198.567 235.477 198.894 235.643L198.976 235.685V233.537L198.938 233.521C198.633 233.396 198.218 233.333 197.703 233.333C197.055 233.333 196.466 233.494 195.952 233.812C195.438 234.131 195.034 234.587 194.751 235.166C194.468 235.744 194.325 236.412 194.325 237.151V238.623H192.777V240.662H194.325V249.253H196.547V240.662H199.842V246.121C199.842 248.37 200.773 249.509 202.608 249.509C202.91 249.509 203.228 249.469 203.552 249.39C203.882 249.309 204.106 249.228 204.239 249.142L204.268 249.122V247.064L204.178 247.132C204.057 247.224 203.907 247.299 203.731 247.354C203.554 247.411 203.406 247.439 203.292 247.439C202.862 247.439 202.544 247.307 202.346 247.047C202.147 246.784 202.045 246.324 202.045 245.681V240.662H204.268ZM187.816 247.439C187.009 247.439 186.374 247.135 185.926 246.535C185.475 245.931 185.246 245.072 185.246 243.979C185.246 242.852 185.475 241.97 185.926 241.356C186.374 240.746 187.004 240.436 187.798 240.436C188.568 240.436 189.181 240.732 189.621 241.315C190.062 241.902 190.286 242.777 190.286 243.917C190.286 245.072 190.075 245.958 189.66 246.552C189.247 247.14 188.627 247.439 187.816 247.439ZM187.915 238.366C186.376 238.366 185.154 238.88 184.283 239.893C183.412 240.906 182.971 242.308 182.971 244.061C182.971 245.725 183.402 247.064 184.252 248.039C185.102 249.015 186.259 249.509 187.69 249.509C189.181 249.509 190.379 248.988 191.25 247.961C192.12 246.935 192.562 245.547 192.562 243.835C192.562 242.145 192.148 240.796 191.331 239.827C190.514 238.858 189.364 238.366 187.915 238.366ZM179.389 238.366C178.342 238.366 177.477 238.671 176.815 239.273C176.15 239.878 175.813 240.671 175.813 241.631C175.813 242.13 175.885 242.574 176.029 242.949C176.173 243.327 176.396 243.659 176.693 243.938C176.987 244.214 177.441 244.504 178.043 244.798C178.549 245.036 178.927 245.236 179.166 245.394C179.401 245.549 179.567 245.705 179.661 245.857C179.752 246.006 179.798 246.209 179.798 246.46C179.798 247.174 179.329 247.521 178.363 247.521C178.005 247.521 177.596 247.436 177.149 247.268C176.701 247.1 176.282 246.859 175.905 246.549L175.813 246.474V248.911L175.846 248.929C176.161 249.094 176.557 249.234 177.024 249.344C177.491 249.453 177.914 249.509 178.282 249.509C179.418 249.509 180.332 249.203 181 248.598C181.671 247.989 182.011 247.177 182.011 246.183C182.011 245.467 181.828 244.852 181.467 244.357C181.108 243.865 180.486 243.414 179.618 243.015C178.926 242.699 178.483 242.436 178.3 242.235C178.124 242.04 178.034 241.764 178.034 241.416C178.034 241.107 178.145 240.859 178.372 240.658C178.6 240.457 178.918 240.354 179.317 240.354C179.687 240.354 180.066 240.421 180.443 240.551C180.819 240.682 181.15 240.857 181.426 241.071L181.516 241.141V238.83L181.481 238.812C181.227 238.688 180.891 238.582 180.483 238.495C180.077 238.41 179.709 238.366 179.389 238.366ZM170.02 247.439C169.214 247.439 168.578 247.135 168.13 246.535C167.679 245.931 167.451 245.072 167.451 243.979C167.451 242.852 167.68 241.97 168.131 241.356C168.579 240.746 169.208 240.436 170.003 240.436C170.773 240.436 171.386 240.732 171.825 241.315C172.267 241.902 172.491 242.777 172.491 243.917C172.491 245.072 172.28 245.958 171.865 246.552C171.452 247.14 170.832 247.439 170.02 247.439ZM170.12 238.366C168.581 238.366 167.359 238.88 166.488 239.893C165.617 240.906 165.176 242.308 165.176 244.061C165.176 245.726 165.607 247.064 166.457 248.039C167.307 249.015 168.463 249.509 169.895 249.509C171.386 249.509 172.584 248.988 173.455 247.961C174.325 246.935 174.767 245.547 174.767 243.835C174.767 242.145 174.352 240.796 173.535 239.827C172.718 238.858 171.569 238.366 170.12 238.366ZM161.803 240.463V238.623H159.608V249.253H161.803V243.815C161.803 242.89 161.987 242.131 162.35 241.557C162.708 240.99 163.186 240.703 163.769 240.703C163.967 240.703 164.189 240.74 164.429 240.813C164.667 240.886 164.839 240.966 164.941 241.049L165.033 241.125V238.604L164.998 238.587C164.793 238.488 164.504 238.438 164.138 238.438C163.587 238.438 163.093 238.64 162.671 239.037C162.3 239.387 162.031 239.866 161.826 240.463H161.803ZM155.678 238.366C154.671 238.366 153.773 238.612 153.009 239.097C152.244 239.583 151.652 240.277 151.249 241.16C150.848 242.04 150.645 243.068 150.645 244.215C150.645 245.219 150.842 246.141 151.232 246.953C151.622 247.767 152.175 248.403 152.874 248.845C153.573 249.286 154.38 249.509 155.274 249.509C156.317 249.509 157.207 249.272 157.921 248.803L157.95 248.784V246.493L157.858 246.57C157.534 246.839 157.173 247.053 156.784 247.207C156.396 247.361 156.042 247.439 155.732 247.439C154.871 247.439 154.18 247.132 153.678 246.527C153.175 245.921 152.92 245.07 152.92 243.999C152.92 242.921 153.186 242.049 153.71 241.404C154.233 240.762 154.925 240.437 155.769 240.437C156.49 240.437 157.193 240.715 157.858 241.264L157.95 241.341V238.927L157.92 238.908C157.67 238.748 157.329 238.616 156.905 238.516C156.483 238.417 156.07 238.366 155.678 238.366ZM149.133 238.623H146.938V249.253H149.133V238.623ZM148.058 234.094C147.697 234.094 147.382 234.234 147.123 234.512C146.863 234.79 146.731 235.141 146.731 235.554C146.731 235.962 146.862 236.306 147.119 236.577C147.375 236.847 147.691 236.984 148.058 236.984C148.425 236.984 148.743 236.847 149.002 236.577C149.262 236.306 149.394 235.962 149.394 235.554C149.394 235.155 149.266 234.808 149.012 234.523C148.759 234.238 148.438 234.094 148.058 234.094ZM142.582 237.838V249.253H144.822V234.42H141.722L137.782 245.437L133.958 234.42H130.732V249.253H132.837V237.837H132.909L136.947 249.253H138.535L142.51 237.838H142.582Z" fill="#4F5665"/>
<path d="M165.512 212.928H155.187V201.165H165.512V212.928Z" fill="#4F5665"/>
<path d="M176.911 212.928H166.587V201.165H176.911V212.928Z" fill="#4F5665"/>
<path d="M165.511 225.921H155.187V214.158H165.511V225.921Z" fill="#4F5665"/>
<path d="M176.911 225.921H166.587V214.158H176.911V225.921Z" fill="#4F5665"/>
<path d="M168.042 300.63L161.55 305.438L168.042 310.245L161.55 315.053L155.057 310.205L161.55 305.398L155.057 300.63L161.55 295.822L168.042 300.63ZM161.515 316.575L168.008 311.768L174.5 316.575L168.008 321.383L161.515 316.575ZM168.042 310.205L174.535 305.398L168.042 300.63L174.5 295.822L180.993 300.63L174.5 305.438L180.993 310.245L174.5 315.053L168.042 310.205Z" fill="#4F5665"/>
<path d="M131.208 328.878H135.954C138.983 328.878 141.481 330.882 141.481 335.462V336.428C141.481 341.044 139.139 343.12 136.048 343.12H131.208V328.878ZM133.862 331.455V340.507H135.892C137.609 340.507 138.764 339.219 138.764 336.357V335.605C138.764 332.743 137.547 331.455 135.798 331.455H133.862ZM142.886 331.598H145.009L145.353 334.281C145.759 332.457 146.789 331.49 148.662 331.49H149.318V334.568H148.225C146.071 334.568 145.54 335.426 145.54 337.86V343.155H142.917V331.598H142.886ZM149.849 337.609V337.287C149.849 333.423 152.003 331.312 154.938 331.312C157.936 331.312 160.028 333.423 160.028 337.287V337.609C160.028 341.402 157.998 343.442 154.938 343.442C151.691 343.406 149.849 341.402 149.849 337.609ZM157.343 337.573V337.287C157.343 335.14 156.406 333.852 154.907 333.852C153.44 333.852 152.472 335.033 152.472 337.287V337.573C152.472 339.649 153.409 340.829 154.907 340.829C156.406 340.794 157.343 339.649 157.343 337.573ZM161.402 331.598H163.588L163.837 333.78C164.368 332.313 165.492 331.312 167.147 331.312C169.708 331.312 171.394 333.423 171.394 337.323V337.645C171.394 341.438 169.52 343.442 167.147 343.442C165.555 343.442 164.462 342.619 163.931 341.295V347.127H161.371L161.402 331.598ZM168.74 337.573V337.323C168.74 335.033 167.709 333.888 166.335 333.888C164.868 333.888 163.9 335.176 163.9 337.323V337.538C163.9 339.577 164.837 340.865 166.304 340.865C167.803 340.829 168.74 339.72 168.74 337.573ZM175.265 341.008L175.047 343.12H172.799V327.733H175.359V333.637C175.921 332.135 177.045 331.312 178.638 331.312C181.042 331.347 182.822 333.244 182.822 337.072V337.43C182.822 341.259 181.136 343.442 178.575 343.442C176.889 343.406 175.796 342.511 175.265 341.008ZM180.136 337.43V337.144C180.136 335.033 179.137 333.852 177.732 333.852C176.296 333.852 175.297 335.176 175.297 337.18V337.43C175.297 339.577 176.265 340.829 177.701 340.829C179.231 340.829 180.136 339.72 180.136 337.43ZM183.946 337.609V337.287C183.946 333.423 186.1 331.312 189.035 331.312C192.033 331.312 194.125 333.423 194.125 337.287V337.609C194.125 341.402 192.064 343.442 189.035 343.442C185.788 343.406 183.946 341.402 183.946 337.609ZM191.471 337.573V337.287C191.471 335.14 190.534 333.852 189.035 333.852C187.568 333.852 186.6 335.033 186.6 337.287V337.573C186.6 339.649 187.537 340.829 189.035 340.829C190.534 340.794 191.471 339.649 191.471 337.573ZM197.559 337.144L194.031 331.598H197.06L199.089 335.069L201.15 331.598H204.148L200.557 337.108L204.335 343.12H201.369L199.058 339.291L196.81 343.12H193.719L197.559 337.144Z" fill="#4F5665"/>
<path d="M178.719 396.686C180.812 395.514 181.85 395.668 181.873 396.855C181.901 398.398 181.701 400.449 181.557 401.933C180.78 409.999 179.482 416.59 179.384 424.871C182.803 414.787 185.669 407.777 189.362 399.145C190.534 396.394 191.283 396.908 192.246 396.421C195.995 394.518 196.135 395.684 195.646 398.011C193.828 406.628 189.171 433.762 188.46 437.94C188.255 439.149 187.101 438.636 186.804 438.164C185.469 436.06 183.961 436.027 184.129 434.627C184.966 427.662 187.98 410.185 188.767 406.067C184.761 415.422 180.608 427.117 178.472 433.749C178.021 435.157 177.198 435.054 176.686 434.023C175.965 432.576 174.565 431.837 174.332 430.127C173.602 424.689 175.17 414.324 175.388 407.767C173.207 414.93 169.546 428.837 167.941 435.12C167.281 437.719 165.076 437.295 165.662 434.762C168.099 424.217 173.351 405.568 175.621 398.864C176.156 397.284 177.556 397.337 178.719 396.686Z" fill="#4F5665"/>
<path d="M165.424 395.393C164.717 395.197 162.665 396.458 161.405 396.707C161.005 396.787 160.623 397.269 160.488 397.613C158.47 402.897 156.66 407.934 155.093 412.523C153.088 412.913 150.743 413.427 148.12 414.098C149.999 408.606 151.897 403.189 153.748 397.979C154.66 395.414 152.26 395.17 151.329 397.767C150.12 401.143 147.855 407.469 145.347 414.841C143.505 415.356 141.552 415.944 139.509 416.616C138.026 417.104 137.965 417.555 138.607 418.569C138.961 419.133 139.691 419.076 140.026 419.479C140.891 420.521 141.417 421.768 142.966 421.957C141.584 426.168 140.203 430.51 138.951 434.691C138.165 437.316 140.403 437.853 141.263 435.075C142.649 430.599 144.11 426.068 145.612 421.55C146.864 421.219 149.892 420.476 152.688 419.784C150.469 426.714 149.008 431.976 148.455 434.537C148.352 435.03 148.524 435.304 148.617 435.505C149.366 436.746 150.078 436.797 151.041 438.333C151.301 438.751 152.176 438.977 152.474 437.946C154.53 430.87 156.646 424.231 158.618 418.279C159.437 418.075 160.912 417.67 161.814 416.135C163.419 413.412 163.879 413.964 164.265 413.137C164.749 412.097 164.428 411.122 162.716 411.363C162.716 411.363 162.07 411.415 160.874 411.57C162.772 406.003 164.433 401.281 165.628 397.682C166.038 396.463 166.089 395.573 165.424 395.393Z" fill="#4F5665"/>
<path d="M162.624 431.503C163.066 432.776 164.447 432.391 163.922 430.855C163.387 429.29 162.056 424.58 161.707 423.063C161.233 421.018 163.289 421.577 162.247 422.914C161.354 424.063 160.758 424.524 159.107 426.71C157.512 428.819 157.944 431.557 159.651 432.162C161.577 432.845 163.275 430.427 164.326 428.653C165.345 426.935 164.359 425.928 163.331 426.943C162.67 427.596 161.907 428.599 161.135 429.14C160.507 429.575 160.014 429.107 160.851 427.794C161.824 426.273 162.912 424.999 163.722 423.563C165.373 420.634 162.107 418.946 160.703 420.848C159.949 421.862 160.14 422.858 160.344 423.712C160.675 425.08 161.903 429.449 162.624 431.503Z" fill="#4F5665"/>
<path d="M169.491 505.537C169.491 506.597 168.717 507.465 167.771 507.465C166.826 507.465 166.052 506.597 166.052 505.537C166.052 504.477 166.783 503.61 167.771 503.61C168.76 503.634 169.491 504.501 169.491 505.537ZM162.441 509.393C162.441 509.561 162.441 509.874 162.441 509.874C162.441 509.874 161.624 508.694 159.883 508.694C157.025 508.694 154.768 511.152 154.768 514.525C154.768 517.898 156.982 520.356 159.883 520.356C161.646 520.356 162.441 519.151 162.441 519.151V519.657C162.441 519.898 162.591 520.067 162.806 520.067H164.934V508.983C164.934 508.983 162.978 508.983 162.806 508.983C162.591 508.983 162.441 509.2 162.441 509.393ZM162.441 516.501C162.054 517.151 161.259 517.705 160.313 517.705C158.637 517.705 157.347 516.525 157.347 514.525C157.347 512.525 158.637 511.344 160.313 511.344C161.237 511.344 162.076 511.923 162.441 512.549V516.501ZM166.525 508.983H169.061V520.067H166.525V508.983ZM204.246 508.694C202.505 508.694 201.689 509.874 201.689 509.874V503.658H199.152V520.091C199.152 520.091 201.108 520.091 201.28 520.091C201.495 520.091 201.646 519.874 201.646 519.681V519.175C201.646 519.175 202.462 520.38 204.203 520.38C207.062 520.38 209.319 517.898 209.319 514.549C209.34 511.176 207.084 508.694 204.246 508.694ZM203.838 517.681C202.871 517.681 202.097 517.127 201.71 516.477V512.525C202.097 511.947 202.957 511.32 203.838 511.32C205.515 511.32 206.804 512.501 206.804 514.501C206.804 516.501 205.515 517.681 203.838 517.681ZM197.863 513.489V520.091H195.326V513.826C195.326 511.995 194.811 511.248 193.371 511.248C192.597 511.248 191.823 511.682 191.329 512.332V520.067H188.792V508.983H190.791C191.006 508.983 191.157 509.2 191.157 509.393V509.874C191.887 509.007 192.876 508.694 193.843 508.694C194.94 508.694 195.864 509.055 196.616 509.754C197.519 510.573 197.863 511.633 197.863 513.489ZM182.667 508.694C180.926 508.694 180.109 509.874 180.109 509.874V503.658H177.573V520.091C177.573 520.091 179.529 520.091 179.7 520.091C179.915 520.091 180.066 519.874 180.066 519.681V519.175C180.066 519.175 180.883 520.38 182.624 520.38C185.482 520.38 187.739 517.898 187.739 514.549C187.782 511.176 185.547 508.694 182.667 508.694ZM182.258 517.681C181.291 517.681 180.517 517.127 180.13 516.477V512.525C180.517 511.947 181.377 511.32 182.258 511.32C183.935 511.32 185.224 512.501 185.224 514.501C185.224 516.501 183.935 517.681 182.258 517.681ZM175.402 508.694C176.175 508.694 176.562 508.838 176.562 508.838V511.465C176.562 511.465 174.456 510.67 173.145 512.356V520.115H170.609V508.983C170.609 508.983 172.565 508.983 172.736 508.983C172.951 508.983 173.102 509.2 173.102 509.393V509.874C173.596 509.248 174.628 508.694 175.402 508.694ZM149.179 519.079C149.05 518.717 148.921 518.332 148.792 518.019C148.577 517.489 148.362 516.983 148.191 516.525L148.169 516.501C146.364 512.067 144.408 507.585 142.344 503.176L142.258 503.007C142.043 502.574 141.828 502.092 141.635 501.61C141.377 501.08 141.119 500.525 140.689 499.995C139.851 498.815 138.647 498.164 137.358 498.164C136.047 498.164 134.864 498.815 133.983 499.923C133.596 500.453 133.295 501.007 133.037 501.537C132.822 502.019 132.608 502.477 132.414 502.935L132.328 503.104C130.308 507.537 128.33 512.019 126.503 516.428L126.482 516.477C126.288 516.959 126.095 517.44 125.88 517.971C125.751 518.284 125.622 518.645 125.493 519.031C125.149 520.115 125.042 521.151 125.171 522.211C125.45 524.428 126.783 526.283 128.588 527.103C129.276 527.416 129.985 527.585 130.716 527.585C130.931 527.585 131.189 527.561 131.404 527.536C132.264 527.416 133.166 527.103 134.026 526.524C135.101 525.85 136.133 524.862 137.293 523.464C138.454 524.886 139.507 525.85 140.56 526.524C141.42 527.079 142.323 527.416 143.182 527.536C143.397 527.561 143.655 527.585 143.87 527.585C144.601 527.585 145.353 527.44 145.998 527.103C147.847 526.283 149.136 524.38 149.416 522.211C149.631 521.199 149.523 520.163 149.179 519.079ZM137.315 520.597C135.896 518.597 134.972 516.693 134.649 515.103C134.52 514.429 134.499 513.826 134.563 513.296C134.606 512.814 134.778 512.404 134.993 512.067C135.488 511.272 136.326 510.766 137.315 510.766C138.303 510.766 139.163 511.248 139.636 512.067C139.851 512.429 140.001 512.838 140.066 513.296C140.152 513.826 140.109 514.453 139.98 515.103C139.658 516.693 138.733 518.573 137.315 520.597ZM147.804 521.994C147.61 523.537 146.707 524.862 145.418 525.44C144.795 525.729 144.107 525.826 143.419 525.729C142.753 525.633 142.108 525.416 141.42 524.958C140.474 524.38 139.529 523.464 138.411 522.091C140.152 519.705 141.205 517.513 141.592 515.561C141.785 514.645 141.807 513.826 141.721 513.055C141.613 512.308 141.377 511.633 141.012 511.055C140.195 509.73 138.819 508.959 137.293 508.959C135.767 508.959 134.392 509.754 133.575 511.055C133.209 511.633 132.973 512.332 132.865 513.055C132.758 513.826 132.779 514.669 132.994 515.561C133.381 517.513 134.477 519.73 136.176 522.115C135.101 523.464 134.134 524.38 133.166 524.982C132.479 525.416 131.834 525.657 131.167 525.753C130.458 525.85 129.77 525.729 129.169 525.464C127.879 524.886 126.955 523.537 126.783 522.019C126.697 521.272 126.761 520.549 127.019 519.73C127.105 519.44 127.234 519.151 127.363 518.79C127.556 518.308 127.75 517.826 127.965 517.32L127.986 517.272C129.792 512.886 131.748 508.381 133.768 504.019L133.854 503.851C134.069 503.417 134.284 502.935 134.477 502.501C134.692 502.019 134.929 501.586 135.208 501.2C135.767 500.501 136.498 500.116 137.315 500.116C138.131 500.116 138.862 500.501 139.421 501.2C139.7 501.586 139.937 502.019 140.152 502.501C140.367 502.935 140.582 503.417 140.775 503.851L140.861 504.019C142.86 508.405 144.816 512.91 146.622 517.296V517.32C146.836 517.802 147.008 518.332 147.223 518.79C147.352 519.151 147.481 519.44 147.567 519.73C147.825 520.476 147.911 521.223 147.804 521.994Z" fill="#4F5665"/>
<path d="M141.171 616.469C137.538 616.469 134.592 613.092 134.592 608.927C134.592 604.762 137.538 601.388 141.171 601.388C142.452 601.388 143.648 601.807 144.658 602.532L141.171 608.927L147.736 604.583C147.023 603.281 146 602.159 144.763 601.308C143.189 600.228 140.999 599.56 138.578 599.56C135.125 599.56 132.095 600.998 130.406 603.151C129.155 604.743 128.41 606.747 128.41 608.927C128.41 611.108 129.155 613.113 130.406 614.706C132.1 616.863 135.084 618.292 138.481 618.292C141.877 618.292 144.86 616.862 146.556 614.706C146.648 614.588 146.738 614.468 146.823 614.344L146.567 613.244C145.376 615.192 143.404 616.469 141.171 616.469Z" fill="#4F5665"/>
<path d="M162.934 617.839L160.179 606.061C159.736 604.158 158.224 602.759 156.423 602.759C155.956 602.759 155.509 602.854 155.093 603.027L149.162 605.499H155.262L156.305 609.96C155.294 608.963 153.977 608.356 152.535 608.356C149.671 608.356 147.353 610.555 147.353 613.268C147.353 615.981 149.671 618.183 152.535 618.183C154.596 618.183 156.419 617.026 157.544 615.249L158.148 617.839H162.934ZM154.53 616.01C153.209 616.01 152.138 614.784 152.138 613.268C152.138 611.754 153.209 610.527 154.53 610.527C155.851 610.527 156.922 611.754 156.922 613.268C156.922 614.784 155.851 616.01 154.53 616.01Z" fill="#4F5665"/>
<path d="M174.168 602.761C173.806 602.761 173.464 602.852 173.159 603.016L169.351 605.05C169.162 603.751 168.178 602.761 166.99 602.761C166.63 602.761 166.287 602.852 165.978 603.016L161.329 605.499H164.598V617.839H169.383V606.872C169.383 606.115 169.918 605.499 170.58 605.499C171.239 605.499 171.777 606.115 171.777 606.872V617.839H176.56V605.499C176.56 603.986 175.488 602.761 174.168 602.761" fill="#4F5665"/>
<path d="M204.177 602.761C203.814 602.761 203.471 602.852 203.161 603.016L199.356 605.05C199.169 603.751 198.184 602.761 196.996 602.761C196.637 602.761 196.294 602.852 195.984 603.016L191.336 605.499H194.604V617.839H199.389V606.872C199.389 606.115 199.924 605.499 200.587 605.499C201.247 605.499 201.781 606.115 201.781 606.872V617.839H206.569V605.499C206.569 603.986 205.496 602.761 204.177 602.761" fill="#4F5665"/>
<path d="M192.109 610.527C192.109 614.816 189.076 618.292 185.334 618.292C181.589 618.292 178.554 614.816 178.554 610.527C178.554 606.239 181.589 602.761 185.334 602.761C189.076 602.761 192.109 606.239 192.109 610.527ZM185.614 605.118C185.401 604.204 184.582 603.661 183.784 603.907C182.988 604.152 182.512 605.092 182.726 606.005L185.051 615.936C185.266 616.85 186.083 617.392 186.881 617.15C187.678 616.903 188.152 615.964 187.938 615.05L185.614 605.118Z" fill="#4F5665"/>
<path d="M166.532 676.417H168.058C175.484 676.894 180.779 680.105 184.704 684.604C188.629 689.104 191.531 695.039 191.918 703.531V705.213C191.541 713.841 188.588 719.535 184.704 724.168C180.623 728.568 175.606 731.903 168.034 732.327H166.532C159.107 731.849 153.812 728.64 149.887 724.14C145.961 719.64 143.06 713.705 142.672 705.213V703.531C142.691 703.525 142.701 703.507 142.697 703.475C143.068 695.016 145.985 689.019 149.887 684.576C153.806 680.113 159.155 676.879 166.532 676.417ZM161.706 680.427C160.243 680.873 158.931 681.439 157.741 682.109C154.122 684.147 151.137 687.063 149.049 690.801C147.012 694.45 145.248 699.143 145.504 705.297C145.665 709.177 146.442 712.441 147.671 715.223C150.096 720.716 153.789 724.764 158.899 727.224C161.426 728.441 164.557 729.294 168.083 729.103C171.465 728.919 174.396 728.053 176.824 726.663C181.583 723.938 185.334 719.734 187.413 713.933C188.464 710.999 189.259 707.609 189.087 703.503C188.762 695.724 185.983 690.449 182.316 686.427C180.501 684.437 178.316 682.744 175.741 681.52C173.243 680.333 169.991 679.453 166.508 679.641C164.795 679.734 163.18 679.977 161.706 680.427Z" fill="#4F5665"/>
<path d="M165.03 697.11C165.81 697.699 166.608 698.267 167.345 698.905C165.681 700.094 164.05 701.321 162.396 702.522C162.647 702.741 162.933 702.92 163.184 703.139C164.852 701.935 166.52 700.733 168.182 699.522C168.928 700.047 169.661 700.585 170.349 701.176C168.684 702.374 167.075 703.635 165.424 704.849C165.669 705.076 165.969 705.239 166.237 705.438C167.942 704.249 169.606 703.012 171.285 701.793V697.811H174.978V705.747C176.02 705.812 177.17 705.756 178.253 705.774V709.504H171.285V705.718C169.237 707.135 167.139 708.736 165.08 710.233C162.935 708.647 160.868 706.972 158.727 705.382C158.107 707.621 156.634 709.305 154.196 709.504C152.676 709.627 150.949 709.411 149.198 709.504V697.811C151.387 697.976 153.79 697.478 155.526 698.092C157.06 698.634 158.148 700.029 158.653 701.765C160.795 700.232 162.904 698.661 165.03 697.11ZM152.719 701.569V705.774C153.598 705.779 154.268 705.838 154.787 705.382C155.56 704.704 155.715 703.024 155.033 702.129C154.578 701.532 153.81 701.407 152.743 701.484C152.715 701.489 152.717 701.529 152.719 701.569ZM179.213 697.811H182.907V705.774H186.157V709.504H179.188V697.895C179.186 697.856 179.184 697.816 179.213 697.811Z" fill="#4F5665"/>
</svg>
